<svg xmlns="http://www.w3.org/2000/svg" xmlns:rdkit="http://www.rdkit.org/xml" xmlns:xlink="http://www.w3.org/1999/xlink" version="1.1" baseProfile="full" xml:space="preserve" width="1250px" height="750px" viewBox="0 0 1250 750">
<!-- END OF HEADER -->
<rect style="opacity:1.0;fill:#FFFFFF;stroke:none" width="1250.0" height="750.0" x="0.0" y="0.0"> </rect>
<path class="bond-0 atom-0 atom-1" d="M 94.6,129.8 L 108.4,95.1" style="fill:none;fill-rule:evenodd;stroke:#000000;stroke-width:2.0px;stroke-linecap:butt;stroke-linejoin:miter;stroke-opacity:1"/>
<path class="bond-1 atom-1 atom-2" d="M 108.4,95.1 L 145.4,89.8" style="fill:none;fill-rule:evenodd;stroke:#000000;stroke-width:2.0px;stroke-linecap:butt;stroke-linejoin:miter;stroke-opacity:1"/>
<path class="bond-2 atom-2 atom-3" d="M 145.4,89.8 L 168.6,119.1" style="fill:none;fill-rule:evenodd;stroke:#000000;stroke-width:2.0px;stroke-linecap:butt;stroke-linejoin:miter;stroke-opacity:1"/>
<path class="bond-3 atom-3 atom-4" d="M 168.6,119.1 L 86.9,112.0" style="fill:none;fill-rule:evenodd;stroke:#000000;stroke-width:2.0px;stroke-linecap:butt;stroke-linejoin:miter;stroke-opacity:1"/>
<path class="bond-4 atom-4 atom-5" d="M 86.9,112.0 L 57.6,135.2" style="fill:none;fill-rule:evenodd;stroke:#000000;stroke-width:2.0px;stroke-linecap:butt;stroke-linejoin:miter;stroke-opacity:1"/>
<path class="bond-5 atom-5 atom-6" d="M 57.6,135.2 L 71.4,100.5" style="fill:none;fill-rule:evenodd;stroke:#000000;stroke-width:2.0px;stroke-linecap:butt;stroke-linejoin:miter;stroke-opacity:1"/>
<path class="bond-6 atom-6 atom-7" d="M 71.4,100.5 L 61.6,88.0" style="fill:none;fill-rule:evenodd;stroke:#000000;stroke-width:2.0px;stroke-linecap:butt;stroke-linejoin:miter;stroke-opacity:1"/>
<path class="bond-6 atom-6 atom-7" d="M 61.6,88.0 L 51.8,75.6" style="fill:none;fill-rule:evenodd;stroke:#7F4C19;stroke-width:2.0px;stroke-linecap:butt;stroke-linejoin:miter;stroke-opacity:1"/>
<path class="bond-7 atom-5 atom-8" d="M 57.6,135.2 L 80.7,164.6" style="fill:none;fill-rule:evenodd;stroke:#000000;stroke-width:2.0px;stroke-linecap:butt;stroke-linejoin:miter;stroke-opacity:1"/>
<path class="bond-8 atom-8 atom-9" d="M 80.7,164.6 L 117.7,159.2" style="fill:none;fill-rule:evenodd;stroke:#000000;stroke-width:2.0px;stroke-linecap:butt;stroke-linejoin:miter;stroke-opacity:1"/>
<path class="bond-9 atom-9 atom-10" d="M 117.7,159.2 L 154.7,153.8" style="fill:none;fill-rule:evenodd;stroke:#000000;stroke-width:2.0px;stroke-linecap:butt;stroke-linejoin:miter;stroke-opacity:1"/>
<path class="bond-10 atom-3 atom-11" d="M 168.6,119.1 L 205.6,113.8" style="fill:none;fill-rule:evenodd;stroke:#000000;stroke-width:2.0px;stroke-linecap:butt;stroke-linejoin:miter;stroke-opacity:1"/>
<path class="bond-11 atom-11 atom-12" d="M 208.5,111.4 L 217.5,122.8" style="fill:none;fill-rule:evenodd;stroke:#000000;stroke-width:2.0px;stroke-linecap:butt;stroke-linejoin:miter;stroke-opacity:1"/>
<path class="bond-11 atom-11 atom-12" d="M 217.5,122.8 L 226.4,134.1" style="fill:none;fill-rule:evenodd;stroke:#FF0000;stroke-width:2.0px;stroke-linecap:butt;stroke-linejoin:miter;stroke-opacity:1"/>
<path class="bond-11 atom-11 atom-12" d="M 202.6,116.1 L 211.6,127.4" style="fill:none;fill-rule:evenodd;stroke:#000000;stroke-width:2.0px;stroke-linecap:butt;stroke-linejoin:miter;stroke-opacity:1"/>
<path class="bond-11 atom-11 atom-12" d="M 211.6,127.4 L 220.5,138.8" style="fill:none;fill-rule:evenodd;stroke:#FF0000;stroke-width:2.0px;stroke-linecap:butt;stroke-linejoin:miter;stroke-opacity:1"/>
<path class="bond-12 atom-11 atom-13" d="M 205.6,113.8 L 211.1,99.8" style="fill:none;fill-rule:evenodd;stroke:#000000;stroke-width:2.0px;stroke-linecap:butt;stroke-linejoin:miter;stroke-opacity:1"/>
<path class="bond-12 atom-11 atom-13" d="M 211.1,99.8 L 216.7,85.9" style="fill:none;fill-rule:evenodd;stroke:#FF0000;stroke-width:2.0px;stroke-linecap:butt;stroke-linejoin:miter;stroke-opacity:1"/>
<path class="bond-13 atom-9 atom-0" d="M 117.7,159.2 L 94.6,129.8" style="fill:none;fill-rule:evenodd;stroke:#000000;stroke-width:2.0px;stroke-linecap:butt;stroke-linejoin:miter;stroke-opacity:1"/>
<path class="bond-14 atom-6 atom-1" d="M 71.4,100.5 L 108.4,95.1" style="fill:none;fill-rule:evenodd;stroke:#000000;stroke-width:2.0px;stroke-linecap:butt;stroke-linejoin:miter;stroke-opacity:1"/>
<path class="bond-15 atom-10 atom-3" d="M 154.7,153.8 L 168.6,119.1" style="fill:none;fill-rule:evenodd;stroke:#000000;stroke-width:2.0px;stroke-linecap:butt;stroke-linejoin:miter;stroke-opacity:1"/>
<path class="bond-16 atom-1 atom-14" d="M 105.7,90.3 L 104.4,91.3" style="fill:none;fill-rule:evenodd;stroke:#000000;stroke-width:1.0px;stroke-linecap:butt;stroke-linejoin:miter;stroke-opacity:1"/>
<path class="bond-16 atom-1 atom-14" d="M 102.9,85.5 L 100.4,87.5" style="fill:none;fill-rule:evenodd;stroke:#000000;stroke-width:1.0px;stroke-linecap:butt;stroke-linejoin:miter;stroke-opacity:1"/>
<path class="bond-16 atom-1 atom-14" d="M 100.2,80.8 L 96.4,83.7" style="fill:none;fill-rule:evenodd;stroke:#000000;stroke-width:1.0px;stroke-linecap:butt;stroke-linejoin:miter;stroke-opacity:1"/>
<path class="bond-16 atom-1 atom-14" d="M 97.4,76.0 L 92.4,79.9" style="fill:none;fill-rule:evenodd;stroke:#000000;stroke-width:1.0px;stroke-linecap:butt;stroke-linejoin:miter;stroke-opacity:1"/>
<path class="bond-16 atom-1 atom-14" d="M 94.7,71.2 L 88.4,76.1" style="fill:none;fill-rule:evenodd;stroke:#000000;stroke-width:1.0px;stroke-linecap:butt;stroke-linejoin:miter;stroke-opacity:1"/>
<path class="bond-17 atom-5 atom-15" d="M 57.6,135.2 L 27.9,143.5 L 26.8,135.6 Z" style="fill:#000000;fill-rule:evenodd;fill-opacity:1;stroke:#000000;stroke-width:1.0px;stroke-linecap:butt;stroke-linejoin:miter;stroke-opacity:1;"/>
<path class="atom-7" d="M 43.3 70.8 Q 44.4 71.1, 44.9 71.7 Q 45.4 72.4, 45.4 73.3 Q 45.4 74.7, 44.5 75.6 Q 43.5 76.4, 41.8 76.4 L 38.2 76.4 L 38.2 65.8 L 41.3 65.8 Q 43.1 65.8, 44.1 66.5 Q 45.0 67.3, 45.0 68.6 Q 45.0 70.2, 43.3 70.8 M 39.6 67.0 L 39.6 70.3 L 41.3 70.3 Q 42.4 70.3, 42.9 69.9 Q 43.5 69.5, 43.5 68.6 Q 43.5 67.0, 41.3 67.0 L 39.6 67.0 M 41.8 75.2 Q 42.8 75.2, 43.3 74.7 Q 43.9 74.2, 43.9 73.3 Q 43.9 72.4, 43.3 72.0 Q 42.7 71.5, 41.5 71.5 L 39.6 71.5 L 39.6 75.2 L 41.8 75.2 " fill="#7F4C19"/>
<path class="atom-7" d="M 47.2 68.7 L 47.4 69.8 Q 48.2 68.6, 49.5 68.6 Q 49.9 68.6, 50.5 68.7 L 50.3 70.0 Q 49.6 69.8, 49.3 69.8 Q 48.6 69.8, 48.2 70.1 Q 47.8 70.3, 47.5 70.9 L 47.5 76.4 L 46.1 76.4 L 46.1 68.7 L 47.2 68.7 " fill="#7F4C19"/>
<path class="atom-12" d="M 223.9 143.2 Q 223.9 140.6, 225.1 139.2 Q 226.4 137.8, 228.7 137.8 Q 231.1 137.8, 232.3 139.2 Q 233.6 140.6, 233.6 143.2 Q 233.6 145.7, 232.3 147.2 Q 231.0 148.6, 228.7 148.6 Q 226.4 148.6, 225.1 147.2 Q 223.9 145.7, 223.9 143.2 M 228.7 147.4 Q 230.3 147.4, 231.2 146.4 Q 232.1 145.3, 232.1 143.2 Q 232.1 141.1, 231.2 140.0 Q 230.3 139.0, 228.7 139.0 Q 227.1 139.0, 226.2 140.0 Q 225.4 141.1, 225.4 143.2 Q 225.4 145.3, 226.2 146.4 Q 227.1 147.4, 228.7 147.4 " fill="#FF0000"/>
<path class="atom-13" d="M 214.6 79.1 Q 214.6 76.5, 215.8 75.1 Q 217.1 73.7, 219.4 73.7 Q 221.8 73.7, 223.0 75.1 Q 224.3 76.5, 224.3 79.1 Q 224.3 81.6, 223.0 83.1 Q 221.8 84.6, 219.4 84.6 Q 217.1 84.6, 215.8 83.1 Q 214.6 81.7, 214.6 79.1 M 219.4 83.4 Q 221.1 83.4, 221.9 82.3 Q 222.8 81.2, 222.8 79.1 Q 222.8 77.0, 221.9 75.9 Q 221.1 74.9, 219.4 74.9 Q 217.8 74.9, 216.9 75.9 Q 216.1 77.0, 216.1 79.1 Q 216.1 81.2, 216.9 82.3 Q 217.8 83.4, 219.4 83.4 " fill="#FF0000"/>
<path class="atom-13" d="M 225.0 75.4 L 228.7 75.4 L 228.7 76.2 L 225.0 76.2 L 225.0 75.4 " fill="#FF0000"/>
<path class="atom-14" d="M 81.1 60.4 L 82.6 60.4 L 82.6 64.9 L 88.0 64.9 L 88.0 60.4 L 89.4 60.4 L 89.4 71.0 L 88.0 71.0 L 88.0 66.1 L 82.6 66.1 L 82.6 71.0 L 81.1 71.0 L 81.1 60.4 " fill="#000000"/>
<path class="atom-15" d="M 16.4 135.2 L 17.9 135.2 L 17.9 139.8 L 23.3 139.8 L 23.3 135.2 L 24.7 135.2 L 24.7 145.8 L 23.3 145.8 L 23.3 140.9 L 17.9 140.9 L 17.9 145.8 L 16.4 145.8 L 16.4 135.2 " fill="#000000"/>
<path class="legend" d="M 118.9 235.2 Q 120.6 235.2, 121.5 236.3 Q 122.5 237.3, 122.5 239.3 Q 122.5 241.4, 121.4 242.5 Q 120.2 243.7, 118.3 243.7 Q 117.0 243.7, 115.8 243.2 L 115.0 243.0 L 115.0 231.4 L 116.5 231.4 L 116.5 236.2 Q 117.4 235.2, 118.9 235.2 M 118.3 242.5 Q 119.5 242.5, 120.2 241.7 Q 121.0 240.8, 121.0 239.3 Q 121.0 237.9, 120.4 237.1 Q 119.8 236.4, 118.8 236.4 Q 118.0 236.4, 117.4 236.8 Q 116.8 237.3, 116.5 238.1 L 116.5 242.3 Q 117.4 242.5, 118.3 242.5 " fill="#000000"/>
<path class="legend" d="M 124.4 235.3 L 124.6 236.5 Q 125.5 235.2, 126.9 235.2 Q 127.3 235.2, 128.0 235.3 L 127.7 236.7 Q 127.0 236.5, 126.6 236.5 Q 126.0 236.5, 125.5 236.8 Q 125.1 237.1, 124.7 237.7 L 124.7 243.6 L 123.2 243.6 L 123.2 235.3 L 124.4 235.3 " fill="#000000"/>
<path class="legend" d="M 128.2 241.3 Q 128.2 240.0, 129.2 239.3 Q 130.3 238.6, 132.2 238.6 L 133.5 238.6 L 133.5 238.3 Q 133.5 237.2, 133.0 236.8 Q 132.6 236.4, 131.6 236.4 Q 130.9 236.4, 130.4 236.5 Q 129.9 236.6, 129.1 237.0 L 128.7 235.9 Q 130.2 235.2, 131.6 235.2 Q 133.4 235.2, 134.2 235.9 Q 135.0 236.7, 135.0 238.3 L 135.0 243.6 L 133.8 243.6 Q 133.8 243.5, 133.7 243.3 Q 133.7 243.0, 133.6 242.6 Q 132.4 243.8, 130.9 243.8 Q 129.7 243.8, 128.9 243.1 Q 128.2 242.4, 128.2 241.3 M 129.7 241.3 Q 129.7 241.9, 130.1 242.2 Q 130.5 242.6, 131.2 242.6 Q 131.8 242.6, 132.4 242.3 Q 133.0 242.0, 133.5 241.5 L 133.5 239.7 L 132.3 239.7 Q 131.0 239.7, 130.4 240.1 Q 129.7 240.5, 129.7 241.3 " fill="#000000"/>
<path class="bond-0 atom-0 atom-1" d="M 384.8,144.8 L 347.4,144.8" style="fill:none;fill-rule:evenodd;stroke:#000000;stroke-width:2.0px;stroke-linecap:butt;stroke-linejoin:miter;stroke-opacity:1"/>
<path class="bond-0 atom-0 atom-1" d="M 379.2,137.3 L 353.0,137.3" style="fill:none;fill-rule:evenodd;stroke:#000000;stroke-width:2.0px;stroke-linecap:butt;stroke-linejoin:miter;stroke-opacity:1"/>
<path class="bond-1 atom-1 atom-2" d="M 347.4,144.8 L 328.7,112.4" style="fill:none;fill-rule:evenodd;stroke:#000000;stroke-width:2.0px;stroke-linecap:butt;stroke-linejoin:miter;stroke-opacity:1"/>
<path class="bond-2 atom-2 atom-3" d="M 328.7,112.4 L 347.4,80.0" style="fill:none;fill-rule:evenodd;stroke:#000000;stroke-width:2.0px;stroke-linecap:butt;stroke-linejoin:miter;stroke-opacity:1"/>
<path class="bond-2 atom-2 atom-3" d="M 338.0,111.3 L 351.1,88.6" style="fill:none;fill-rule:evenodd;stroke:#000000;stroke-width:2.0px;stroke-linecap:butt;stroke-linejoin:miter;stroke-opacity:1"/>
<path class="bond-3 atom-3 atom-4" d="M 347.4,80.0 L 384.8,80.0" style="fill:none;fill-rule:evenodd;stroke:#000000;stroke-width:2.0px;stroke-linecap:butt;stroke-linejoin:miter;stroke-opacity:1"/>
<path class="bond-4 atom-4 atom-5" d="M 384.8,80.0 L 403.5,112.4" style="fill:none;fill-rule:evenodd;stroke:#000000;stroke-width:2.0px;stroke-linecap:butt;stroke-linejoin:miter;stroke-opacity:1"/>
<path class="bond-4 atom-4 atom-5" d="M 381.1,88.6 L 394.2,111.3" style="fill:none;fill-rule:evenodd;stroke:#000000;stroke-width:2.0px;stroke-linecap:butt;stroke-linejoin:miter;stroke-opacity:1"/>
<path class="bond-5 atom-5 atom-6" d="M 403.5,112.4 L 440.9,112.4" style="fill:none;fill-rule:evenodd;stroke:#000000;stroke-width:2.0px;stroke-linecap:butt;stroke-linejoin:miter;stroke-opacity:1"/>
<path class="bond-6 atom-6 atom-7" d="M 440.9,112.4 L 456.9,112.4" style="fill:none;fill-rule:evenodd;stroke:#000000;stroke-width:2.0px;stroke-linecap:butt;stroke-linejoin:miter;stroke-opacity:1"/>
<path class="bond-6 atom-6 atom-7" d="M 456.9,112.4 L 473.0,112.4" style="fill:none;fill-rule:evenodd;stroke:#0000FF;stroke-width:2.0px;stroke-linecap:butt;stroke-linejoin:miter;stroke-opacity:1"/>
<path class="bond-6 atom-6 atom-7" d="M 445.7,104.9 L 459.3,104.9" style="fill:none;fill-rule:evenodd;stroke:#000000;stroke-width:2.0px;stroke-linecap:butt;stroke-linejoin:miter;stroke-opacity:1"/>
<path class="bond-6 atom-6 atom-7" d="M 459.3,104.9 L 473.0,104.9" style="fill:none;fill-rule:evenodd;stroke:#0000FF;stroke-width:2.0px;stroke-linecap:butt;stroke-linejoin:miter;stroke-opacity:1"/>
<path class="bond-6 atom-6 atom-7" d="M 445.7,119.9 L 459.3,119.9" style="fill:none;fill-rule:evenodd;stroke:#000000;stroke-width:2.0px;stroke-linecap:butt;stroke-linejoin:miter;stroke-opacity:1"/>
<path class="bond-6 atom-6 atom-7" d="M 459.3,119.9 L 473.0,119.9" style="fill:none;fill-rule:evenodd;stroke:#0000FF;stroke-width:2.0px;stroke-linecap:butt;stroke-linejoin:miter;stroke-opacity:1"/>
<path class="bond-7 atom-2 atom-8" d="M 328.7,112.4 L 291.3,112.4" style="fill:none;fill-rule:evenodd;stroke:#000000;stroke-width:2.0px;stroke-linecap:butt;stroke-linejoin:miter;stroke-opacity:1"/>
<path class="bond-8 atom-8 atom-9" d="M 294.5,114.3 L 287.1,127.2" style="fill:none;fill-rule:evenodd;stroke:#000000;stroke-width:2.0px;stroke-linecap:butt;stroke-linejoin:miter;stroke-opacity:1"/>
<path class="bond-8 atom-8 atom-9" d="M 287.1,127.2 L 279.6,140.1" style="fill:none;fill-rule:evenodd;stroke:#FF0000;stroke-width:2.0px;stroke-linecap:butt;stroke-linejoin:miter;stroke-opacity:1"/>
<path class="bond-8 atom-8 atom-9" d="M 288.1,110.5 L 280.6,123.4" style="fill:none;fill-rule:evenodd;stroke:#000000;stroke-width:2.0px;stroke-linecap:butt;stroke-linejoin:miter;stroke-opacity:1"/>
<path class="bond-8 atom-8 atom-9" d="M 280.6,123.4 L 273.2,136.3" style="fill:none;fill-rule:evenodd;stroke:#FF0000;stroke-width:2.0px;stroke-linecap:butt;stroke-linejoin:miter;stroke-opacity:1"/>
<path class="bond-9 atom-8 atom-10" d="M 291.3,112.4 L 283.9,99.6" style="fill:none;fill-rule:evenodd;stroke:#000000;stroke-width:2.0px;stroke-linecap:butt;stroke-linejoin:miter;stroke-opacity:1"/>
<path class="bond-9 atom-8 atom-10" d="M 283.9,99.6 L 276.5,86.8" style="fill:none;fill-rule:evenodd;stroke:#FF0000;stroke-width:2.0px;stroke-linecap:butt;stroke-linejoin:miter;stroke-opacity:1"/>
<path class="bond-10 atom-5 atom-0" d="M 403.5,112.4 L 384.8,144.8" style="fill:none;fill-rule:evenodd;stroke:#000000;stroke-width:2.0px;stroke-linecap:butt;stroke-linejoin:miter;stroke-opacity:1"/>
<path class="atom-7" d="M 475.9 107.1 L 479.4 112.7 Q 479.7 113.3, 480.3 114.3 Q 480.8 115.3, 480.8 115.3 L 480.8 107.1 L 482.3 107.1 L 482.3 117.7 L 480.8 117.7 L 477.1 111.6 Q 476.6 110.9, 476.2 110.0 Q 475.7 109.2, 475.6 109.0 L 475.6 117.7 L 474.2 117.7 L 474.2 107.1 L 475.9 107.1 " fill="#0000FF"/>
<path class="atom-9" d="M 267.7 144.8 Q 267.7 142.3, 269.0 140.9 Q 270.3 139.4, 272.6 139.4 Q 275.0 139.4, 276.2 140.9 Q 277.5 142.3, 277.5 144.8 Q 277.5 147.4, 276.2 148.9 Q 274.9 150.3, 272.6 150.3 Q 270.3 150.3, 269.0 148.9 Q 267.7 147.4, 267.7 144.8 M 272.6 149.1 Q 274.2 149.1, 275.1 148.0 Q 276.0 146.9, 276.0 144.8 Q 276.0 142.7, 275.1 141.7 Q 274.2 140.6, 272.6 140.6 Q 271.0 140.6, 270.1 141.7 Q 269.2 142.7, 269.2 144.8 Q 269.2 147.0, 270.1 148.0 Q 271.0 149.1, 272.6 149.1 " fill="#FF0000"/>
<path class="atom-10" d="M 267.7 80.1 Q 267.7 77.5, 269.0 76.1 Q 270.3 74.7, 272.6 74.7 Q 275.0 74.7, 276.2 76.1 Q 277.5 77.5, 277.5 80.1 Q 277.5 82.6, 276.2 84.1 Q 274.9 85.6, 272.6 85.6 Q 270.3 85.6, 269.0 84.1 Q 267.7 82.7, 267.7 80.1 M 272.6 84.4 Q 274.2 84.4, 275.1 83.3 Q 276.0 82.2, 276.0 80.1 Q 276.0 78.0, 275.1 76.9 Q 274.2 75.9, 272.6 75.9 Q 271.0 75.9, 270.1 76.9 Q 269.2 78.0, 269.2 80.1 Q 269.2 82.2, 270.1 83.3 Q 271.0 84.4, 272.6 84.4 " fill="#FF0000"/>
<path class="atom-10" d="M 278.2 76.4 L 281.8 76.4 L 281.8 77.2 L 278.2 77.2 L 278.2 76.4 " fill="#FF0000"/>
<path class="legend" d="M 363.8 239.5 Q 363.8 237.5, 364.8 236.4 Q 365.8 235.3, 367.8 235.3 Q 369.6 235.3, 370.6 236.6 L 369.6 237.4 Q 369.2 236.9, 368.8 236.7 Q 368.3 236.4, 367.8 236.4 Q 366.6 236.4, 366.0 237.2 Q 365.4 238.0, 365.4 239.5 Q 365.4 241.0, 366.0 241.8 Q 366.7 242.6, 367.9 242.6 Q 368.5 242.6, 369.0 242.4 Q 369.5 242.3, 370.0 242.0 L 370.4 243.0 Q 369.3 243.7, 367.7 243.7 Q 365.8 243.7, 364.8 242.6 Q 363.8 241.5, 363.8 239.5 " fill="#000000"/>
<path class="legend" d="M 374.8 235.3 Q 376.5 235.3, 377.5 236.3 Q 378.4 237.4, 378.4 239.4 Q 378.4 241.4, 377.3 242.6 Q 376.2 243.8, 374.2 243.8 Q 372.9 243.8, 371.7 243.3 L 371.0 243.1 L 371.0 231.5 L 372.5 231.5 L 372.5 236.3 Q 373.4 235.3, 374.8 235.3 M 374.2 242.6 Q 375.5 242.6, 376.2 241.7 Q 376.9 240.9, 376.9 239.4 Q 376.9 238.0, 376.3 237.2 Q 375.8 236.4, 374.7 236.4 Q 373.9 236.4, 373.3 236.9 Q 372.7 237.3, 372.5 238.1 L 372.5 242.3 Q 373.3 242.6, 374.2 242.6 " fill="#000000"/>
<path class="legend" d="M 383.5 235.3 Q 384.8 235.3, 385.5 236.0 Q 386.2 236.8, 386.2 238.2 L 386.2 243.6 L 384.7 243.6 L 384.7 238.3 Q 384.7 237.3, 384.3 236.9 Q 383.9 236.4, 383.1 236.4 Q 382.3 236.4, 381.7 236.8 Q 381.1 237.1, 380.7 237.7 L 380.7 243.6 L 379.2 243.6 L 379.2 235.4 L 380.4 235.4 L 380.6 236.6 Q 381.7 235.3, 383.5 235.3 " fill="#000000"/>
<path class="bond-0 atom-0 atom-1" d="M 707.1,126.4 L 694.2,91.3" style="fill:none;fill-rule:evenodd;stroke:#000000;stroke-width:2.0px;stroke-linecap:butt;stroke-linejoin:miter;stroke-opacity:1"/>
<path class="bond-1 atom-1 atom-2" d="M 694.2,91.3 L 656.8,92.7" style="fill:none;fill-rule:evenodd;stroke:#000000;stroke-width:2.0px;stroke-linecap:butt;stroke-linejoin:miter;stroke-opacity:1"/>
<path class="bond-2 atom-2 atom-3" d="M 656.8,92.7 L 646.7,128.7" style="fill:none;fill-rule:evenodd;stroke:#000000;stroke-width:2.0px;stroke-linecap:butt;stroke-linejoin:miter;stroke-opacity:1"/>
<path class="bond-3 atom-3 atom-4" d="M 646.7,128.7 L 677.7,149.5" style="fill:none;fill-rule:evenodd;stroke:#000000;stroke-width:2.0px;stroke-linecap:butt;stroke-linejoin:miter;stroke-opacity:1"/>
<path class="bond-4 atom-3 atom-5" d="M 646.7,128.7 L 611.6,141.6" style="fill:none;fill-rule:evenodd;stroke:#000000;stroke-width:2.0px;stroke-linecap:butt;stroke-linejoin:miter;stroke-opacity:1"/>
<path class="bond-5 atom-5 atom-6" d="M 611.6,141.6 L 582.8,117.7" style="fill:none;fill-rule:evenodd;stroke:#000000;stroke-width:2.0px;stroke-linecap:butt;stroke-linejoin:miter;stroke-opacity:1"/>
<path class="bond-6 atom-6 atom-7" d="M 579.2,117.1 L 581.7,102.0" style="fill:none;fill-rule:evenodd;stroke:#000000;stroke-width:2.0px;stroke-linecap:butt;stroke-linejoin:miter;stroke-opacity:1"/>
<path class="bond-6 atom-6 atom-7" d="M 581.7,102.0 L 584.3,87.0" style="fill:none;fill-rule:evenodd;stroke:#FF0000;stroke-width:2.0px;stroke-linecap:butt;stroke-linejoin:miter;stroke-opacity:1"/>
<path class="bond-6 atom-6 atom-7" d="M 586.5,118.3 L 589.1,103.3" style="fill:none;fill-rule:evenodd;stroke:#000000;stroke-width:2.0px;stroke-linecap:butt;stroke-linejoin:miter;stroke-opacity:1"/>
<path class="bond-6 atom-6 atom-7" d="M 589.1,103.3 L 591.7,88.3" style="fill:none;fill-rule:evenodd;stroke:#FF0000;stroke-width:2.0px;stroke-linecap:butt;stroke-linejoin:miter;stroke-opacity:1"/>
<path class="bond-7 atom-6 atom-8" d="M 582.8,117.7 L 570.5,122.2" style="fill:none;fill-rule:evenodd;stroke:#000000;stroke-width:2.0px;stroke-linecap:butt;stroke-linejoin:miter;stroke-opacity:1"/>
<path class="bond-7 atom-6 atom-8" d="M 570.5,122.2 L 558.2,126.8" style="fill:none;fill-rule:evenodd;stroke:#FF0000;stroke-width:2.0px;stroke-linecap:butt;stroke-linejoin:miter;stroke-opacity:1"/>
<path class="bond-8 atom-4 atom-0" d="M 677.7,149.5 L 707.1,126.4" style="fill:none;fill-rule:evenodd;stroke:#000000;stroke-width:2.0px;stroke-linecap:butt;stroke-linejoin:miter;stroke-opacity:1"/>
<path class="atom-7" d="M 584.3 80.9 Q 584.3 78.4, 585.6 76.9 Q 586.8 75.5, 589.2 75.5 Q 591.5 75.5, 592.8 76.9 Q 594.0 78.4, 594.0 80.9 Q 594.0 83.5, 592.8 84.9 Q 591.5 86.4, 589.2 86.4 Q 586.9 86.4, 585.6 84.9 Q 584.3 83.5, 584.3 80.9 M 589.2 85.2 Q 590.8 85.2, 591.7 84.1 Q 592.6 83.0, 592.6 80.9 Q 592.6 78.8, 591.7 77.8 Q 590.8 76.7, 589.2 76.7 Q 587.6 76.7, 586.7 77.8 Q 585.8 78.8, 585.8 80.9 Q 585.8 83.0, 586.7 84.1 Q 587.6 85.2, 589.2 85.2 " fill="#FF0000"/>
<path class="atom-8" d="M 542.9 130.7 Q 542.9 128.1, 544.2 126.7 Q 545.4 125.3, 547.8 125.3 Q 550.1 125.3, 551.4 126.7 Q 552.6 128.1, 552.6 130.7 Q 552.6 133.2, 551.3 134.7 Q 550.1 136.2, 547.8 136.2 Q 545.4 136.2, 544.2 134.7 Q 542.9 133.3, 542.9 130.7 M 547.8 135.0 Q 549.4 135.0, 550.2 133.9 Q 551.1 132.8, 551.1 130.7 Q 551.1 128.6, 550.2 127.5 Q 549.4 126.5, 547.8 126.5 Q 546.1 126.5, 545.3 127.5 Q 544.4 128.6, 544.4 130.7 Q 544.4 132.8, 545.3 133.9 Q 546.1 135.0, 547.8 135.0 " fill="#FF0000"/>
<path class="atom-8" d="M 553.4 127.0 L 557.0 127.0 L 557.0 127.8 L 553.4 127.8 L 553.4 127.0 " fill="#FF0000"/>
<path class="legend" d="M 614.0 235.7 Q 614.0 233.7, 614.9 232.6 Q 615.9 231.5, 617.9 231.5 Q 619.8 231.5, 620.7 232.8 L 619.7 233.6 Q 619.3 233.1, 618.9 232.9 Q 618.5 232.6, 617.9 232.6 Q 616.8 232.6, 616.1 233.4 Q 615.5 234.2, 615.5 235.7 Q 615.5 237.2, 616.1 238.0 Q 616.8 238.8, 618.0 238.8 Q 618.7 238.8, 619.1 238.6 Q 619.6 238.5, 620.2 238.2 L 620.6 239.2 Q 619.4 239.9, 617.9 239.9 Q 615.9 239.9, 614.9 238.8 Q 614.0 237.7, 614.0 235.7 " fill="#000000"/>
<path class="legend" d="M 624.9 231.5 Q 626.7 231.5, 627.6 232.5 Q 628.6 233.6, 628.6 235.6 Q 628.6 237.6, 627.4 238.8 Q 626.3 240.0, 624.3 240.0 Q 623.4 240.0, 622.6 239.7 L 622.6 243.7 L 621.1 243.7 L 621.1 231.6 L 622.3 231.6 L 622.5 232.6 Q 623.0 232.0, 623.6 231.7 Q 624.2 231.5, 624.9 231.5 M 624.3 238.8 Q 625.6 238.8, 626.3 237.9 Q 627.0 237.1, 627.0 235.6 Q 627.0 234.2, 626.4 233.4 Q 625.9 232.6, 624.8 232.6 Q 624.0 232.6, 623.4 233.1 Q 622.9 233.5, 622.6 234.3 L 622.6 238.5 Q 623.4 238.8, 624.3 238.8 " fill="#000000"/>
<path class="legend" d="M 629.3 237.6 Q 629.3 236.3, 630.3 235.6 Q 631.4 234.9, 633.3 234.9 L 634.5 234.9 L 634.5 234.5 Q 634.5 233.5, 634.1 233.1 Q 633.7 232.6, 632.7 232.6 Q 632.0 232.6, 631.5 232.8 Q 631.0 232.9, 630.2 233.2 L 629.7 232.2 Q 631.2 231.5, 632.7 231.5 Q 634.4 231.5, 635.2 232.2 Q 636.0 232.9, 636.0 234.6 L 636.0 239.8 L 634.9 239.8 Q 634.9 239.8, 634.8 239.5 Q 634.8 239.3, 634.7 238.9 Q 633.5 240.0, 632.0 240.0 Q 630.8 240.0, 630.0 239.4 Q 629.3 238.7, 629.3 237.6 M 630.8 237.6 Q 630.8 238.2, 631.2 238.5 Q 631.6 238.8, 632.3 238.8 Q 632.9 238.8, 633.5 238.5 Q 634.1 238.2, 634.5 237.7 L 634.5 236.0 L 633.4 236.0 Q 632.1 236.0, 631.4 236.4 Q 630.8 236.8, 630.8 237.6 " fill="#000000"/>
<path class="bond-0 atom-1 atom-0" d="M 945.9,70.8 L 945.1,69.9" style="fill:none;fill-rule:evenodd;stroke:#000000;stroke-width:1.0px;stroke-linecap:butt;stroke-linejoin:miter;stroke-opacity:1"/>
<path class="bond-0 atom-1 atom-0" d="M 951.2,67.4 L 949.6,65.5" style="fill:none;fill-rule:evenodd;stroke:#000000;stroke-width:1.0px;stroke-linecap:butt;stroke-linejoin:miter;stroke-opacity:1"/>
<path class="bond-0 atom-1 atom-0" d="M 956.4,64.0 L 954.1,61.1" style="fill:none;fill-rule:evenodd;stroke:#000000;stroke-width:1.0px;stroke-linecap:butt;stroke-linejoin:miter;stroke-opacity:1"/>
<path class="bond-0 atom-1 atom-0" d="M 961.7,60.6 L 958.6,56.7" style="fill:none;fill-rule:evenodd;stroke:#000000;stroke-width:1.0px;stroke-linecap:butt;stroke-linejoin:miter;stroke-opacity:1"/>
<path class="bond-0 atom-1 atom-0" d="M 967.0,57.3 L 963.1,52.4" style="fill:none;fill-rule:evenodd;stroke:#000000;stroke-width:1.0px;stroke-linecap:butt;stroke-linejoin:miter;stroke-opacity:1"/>
<path class="bond-0 atom-1 atom-0" d="M 972.2,53.9 L 967.6,48.0" style="fill:none;fill-rule:evenodd;stroke:#000000;stroke-width:1.0px;stroke-linecap:butt;stroke-linejoin:miter;stroke-opacity:1"/>
<path class="bond-1 atom-1 atom-2" d="M 940.7,74.2 L 905.9,60.6" style="fill:none;fill-rule:evenodd;stroke:#000000;stroke-width:2.0px;stroke-linecap:butt;stroke-linejoin:miter;stroke-opacity:1"/>
<path class="bond-2 atom-2 atom-3" d="M 905.9,60.6 L 876.6,83.9" style="fill:none;fill-rule:evenodd;stroke:#000000;stroke-width:2.0px;stroke-linecap:butt;stroke-linejoin:miter;stroke-opacity:1"/>
<path class="bond-3 atom-3 atom-4" d="M 876.6,83.9 L 841.8,70.2" style="fill:none;fill-rule:evenodd;stroke:#000000;stroke-width:2.0px;stroke-linecap:butt;stroke-linejoin:miter;stroke-opacity:1"/>
<path class="bond-4 atom-4 atom-5" d="M 841.8,70.2 L 812.6,93.5" style="fill:none;fill-rule:evenodd;stroke:#000000;stroke-width:2.0px;stroke-linecap:butt;stroke-linejoin:miter;stroke-opacity:1"/>
<path class="bond-4 atom-4 atom-5" d="M 842.1,79.5 L 821.6,95.8" style="fill:none;fill-rule:evenodd;stroke:#000000;stroke-width:2.0px;stroke-linecap:butt;stroke-linejoin:miter;stroke-opacity:1"/>
<path class="bond-5 atom-5 atom-6" d="M 812.6,93.5 L 777.8,79.8" style="fill:none;fill-rule:evenodd;stroke:#000000;stroke-width:2.0px;stroke-linecap:butt;stroke-linejoin:miter;stroke-opacity:1"/>
<path class="bond-6 atom-5 atom-7" d="M 812.6,93.5 L 818.1,130.5" style="fill:none;fill-rule:evenodd;stroke:#000000;stroke-width:2.0px;stroke-linecap:butt;stroke-linejoin:miter;stroke-opacity:1"/>
<path class="bond-7 atom-1 atom-8" d="M 940.7,74.2 L 946.2,111.2" style="fill:none;fill-rule:evenodd;stroke:#000000;stroke-width:2.0px;stroke-linecap:butt;stroke-linejoin:miter;stroke-opacity:1"/>
<path class="bond-8 atom-8 atom-9" d="M 946.2,111.2 L 917.0,134.5" style="fill:none;fill-rule:evenodd;stroke:#000000;stroke-width:2.0px;stroke-linecap:butt;stroke-linejoin:miter;stroke-opacity:1"/>
<path class="bond-9 atom-9 atom-10" d="M 915.6,138.0 L 901.2,132.3" style="fill:none;fill-rule:evenodd;stroke:#000000;stroke-width:2.0px;stroke-linecap:butt;stroke-linejoin:miter;stroke-opacity:1"/>
<path class="bond-9 atom-9 atom-10" d="M 901.2,132.3 L 886.9,126.7" style="fill:none;fill-rule:evenodd;stroke:#FF0000;stroke-width:2.0px;stroke-linecap:butt;stroke-linejoin:miter;stroke-opacity:1"/>
<path class="bond-9 atom-9 atom-10" d="M 918.3,131.0 L 904.0,125.4" style="fill:none;fill-rule:evenodd;stroke:#000000;stroke-width:2.0px;stroke-linecap:butt;stroke-linejoin:miter;stroke-opacity:1"/>
<path class="bond-9 atom-9 atom-10" d="M 904.0,125.4 L 889.6,119.7" style="fill:none;fill-rule:evenodd;stroke:#FF0000;stroke-width:2.0px;stroke-linecap:butt;stroke-linejoin:miter;stroke-opacity:1"/>
<path class="bond-10 atom-9 atom-11" d="M 917.0,134.5 L 919.3,149.7" style="fill:none;fill-rule:evenodd;stroke:#000000;stroke-width:2.0px;stroke-linecap:butt;stroke-linejoin:miter;stroke-opacity:1"/>
<path class="bond-10 atom-9 atom-11" d="M 919.3,149.7 L 921.5,164.9" style="fill:none;fill-rule:evenodd;stroke:#FF0000;stroke-width:2.0px;stroke-linecap:butt;stroke-linejoin:miter;stroke-opacity:1"/>
<path class="atom-10" d="M 877.3 120.9 Q 877.3 118.3, 878.6 116.9 Q 879.8 115.5, 882.2 115.5 Q 884.5 115.5, 885.8 116.9 Q 887.0 118.3, 887.0 120.9 Q 887.0 123.4, 885.8 124.9 Q 884.5 126.3, 882.2 126.3 Q 879.8 126.3, 878.6 124.9 Q 877.3 123.4, 877.3 120.9 M 882.2 125.1 Q 883.8 125.1, 884.7 124.1 Q 885.5 123.0, 885.5 120.9 Q 885.5 118.8, 884.7 117.7 Q 883.8 116.7, 882.2 116.7 Q 880.6 116.7, 879.7 117.7 Q 878.8 118.8, 878.8 120.9 Q 878.8 123.0, 879.7 124.1 Q 880.6 125.1, 882.2 125.1 " fill="#FF0000"/>
<path class="atom-11" d="M 917.7 171.5 Q 917.7 169.0, 918.9 167.5 Q 920.2 166.1, 922.5 166.1 Q 924.9 166.1, 926.1 167.5 Q 927.4 169.0, 927.4 171.5 Q 927.4 174.1, 926.1 175.5 Q 924.8 177.0, 922.5 177.0 Q 920.2 177.0, 918.9 175.5 Q 917.7 174.1, 917.7 171.5 M 922.5 175.8 Q 924.1 175.8, 925.0 174.7 Q 925.9 173.6, 925.9 171.5 Q 925.9 169.4, 925.0 168.4 Q 924.1 167.3, 922.5 167.3 Q 920.9 167.3, 920.0 168.4 Q 919.2 169.4, 919.2 171.5 Q 919.2 173.6, 920.0 174.7 Q 920.9 175.8, 922.5 175.8 " fill="#FF0000"/>
<path class="atom-11" d="M 928.1 167.8 L 931.8 167.8 L 931.8 168.6 L 928.1 168.6 L 928.1 167.8 " fill="#FF0000"/>
<path class="legend" d="M 868.2 239.5 Q 868.2 237.5, 869.2 236.4 Q 870.2 235.3, 872.1 235.3 Q 874.0 235.3, 875.0 236.6 L 874.0 237.4 Q 873.6 236.9, 873.1 236.7 Q 872.7 236.5, 872.1 236.5 Q 871.0 236.5, 870.4 237.3 Q 869.7 238.0, 869.7 239.5 Q 869.7 241.0, 870.4 241.8 Q 871.0 242.6, 872.2 242.6 Q 872.9 242.6, 873.4 242.5 Q 873.8 242.3, 874.4 242.0 L 874.8 243.1 Q 873.6 243.8, 872.1 243.8 Q 870.2 243.8, 869.2 242.6 Q 868.2 241.5, 868.2 239.5 " fill="#000000"/>
<path class="legend" d="M 876.6 235.4 L 876.8 236.6 Q 877.6 235.3, 879.0 235.3 Q 879.5 235.3, 880.1 235.4 L 879.8 236.8 Q 879.2 236.6, 878.8 236.6 Q 878.1 236.6, 877.7 236.9 Q 877.2 237.2, 876.9 237.8 L 876.9 243.7 L 875.4 243.7 L 875.4 235.4 L 876.6 235.4 " fill="#000000"/>
<path class="legend" d="M 880.3 231.5 L 881.8 231.5 L 881.8 243.7 L 880.3 243.7 L 880.3 231.5 " fill="#000000"/>
<path class="bond-0 atom-0 atom-1" d="M 1151.5,68.4 L 1141.0,104.3" style="fill:none;fill-rule:evenodd;stroke:#000000;stroke-width:2.0px;stroke-linecap:butt;stroke-linejoin:miter;stroke-opacity:1"/>
<path class="bond-1 atom-1 atom-2" d="M 1141.0,104.3 L 1130.5,140.2" style="fill:none;fill-rule:evenodd;stroke:#000000;stroke-width:2.0px;stroke-linecap:butt;stroke-linejoin:miter;stroke-opacity:1"/>
<path class="bond-2 atom-1 atom-3" d="M 1141.0,104.3 L 1105.2,93.8" style="fill:none;fill-rule:evenodd;stroke:#000000;stroke-width:2.0px;stroke-linecap:butt;stroke-linejoin:miter;stroke-opacity:1"/>
<path class="bond-3 atom-3 atom-4" d="M 1105.2,93.8 L 1078.1,119.6" style="fill:none;fill-rule:evenodd;stroke:#000000;stroke-width:2.0px;stroke-linecap:butt;stroke-linejoin:miter;stroke-opacity:1"/>
<path class="bond-4 atom-4 atom-5" d="M 1077.1,123.2 L 1041.2,112.7" style="fill:none;fill-rule:evenodd;stroke:#000000;stroke-width:2.0px;stroke-linecap:butt;stroke-linejoin:miter;stroke-opacity:1"/>
<path class="bond-4 atom-4 atom-5" d="M 1079.2,116.0 L 1043.3,105.5" style="fill:none;fill-rule:evenodd;stroke:#000000;stroke-width:2.0px;stroke-linecap:butt;stroke-linejoin:miter;stroke-opacity:1"/>
<path class="bond-5 atom-1 atom-6" d="M 1141.0,104.3 L 1176.9,114.8" style="fill:none;fill-rule:evenodd;stroke:#000000;stroke-width:2.0px;stroke-linecap:butt;stroke-linejoin:miter;stroke-opacity:1"/>
<path class="bond-6 atom-6 atom-7" d="M 1174.3,112.1 L 1184.8,102.1" style="fill:none;fill-rule:evenodd;stroke:#000000;stroke-width:2.0px;stroke-linecap:butt;stroke-linejoin:miter;stroke-opacity:1"/>
<path class="bond-6 atom-6 atom-7" d="M 1184.8,102.1 L 1195.3,92.1" style="fill:none;fill-rule:evenodd;stroke:#FF0000;stroke-width:2.0px;stroke-linecap:butt;stroke-linejoin:miter;stroke-opacity:1"/>
<path class="bond-6 atom-6 atom-7" d="M 1179.5,117.5 L 1190.0,107.5" style="fill:none;fill-rule:evenodd;stroke:#000000;stroke-width:2.0px;stroke-linecap:butt;stroke-linejoin:miter;stroke-opacity:1"/>
<path class="bond-6 atom-6 atom-7" d="M 1190.0,107.5 L 1200.4,97.5" style="fill:none;fill-rule:evenodd;stroke:#FF0000;stroke-width:2.0px;stroke-linecap:butt;stroke-linejoin:miter;stroke-opacity:1"/>
<path class="bond-7 atom-6 atom-8" d="M 1176.9,114.8 L 1180.5,129.6" style="fill:none;fill-rule:evenodd;stroke:#000000;stroke-width:2.0px;stroke-linecap:butt;stroke-linejoin:miter;stroke-opacity:1"/>
<path class="bond-7 atom-6 atom-8" d="M 1180.5,129.6 L 1184.2,144.5" style="fill:none;fill-rule:evenodd;stroke:#FF0000;stroke-width:2.0px;stroke-linecap:butt;stroke-linejoin:miter;stroke-opacity:1"/>
<path class="atom-7" d="M 1199.1 89.0 Q 1199.1 86.4, 1200.3 85.0 Q 1201.6 83.6, 1204.0 83.6 Q 1206.3 83.6, 1207.6 85.0 Q 1208.8 86.4, 1208.8 89.0 Q 1208.8 91.5, 1207.5 93.0 Q 1206.3 94.5, 1204.0 94.5 Q 1201.6 94.5, 1200.3 93.0 Q 1199.1 91.6, 1199.1 89.0 M 1204.0 93.3 Q 1205.6 93.3, 1206.4 92.2 Q 1207.3 91.1, 1207.3 89.0 Q 1207.3 86.9, 1206.4 85.8 Q 1205.6 84.8, 1204.0 84.8 Q 1202.3 84.8, 1201.5 85.8 Q 1200.6 86.9, 1200.6 89.0 Q 1200.6 91.1, 1201.5 92.2 Q 1202.3 93.3, 1204.0 93.3 " fill="#FF0000"/>
<path class="atom-8" d="M 1180.9 151.1 Q 1180.9 148.6, 1182.2 147.2 Q 1183.4 145.7, 1185.8 145.7 Q 1188.1 145.7, 1189.4 147.2 Q 1190.6 148.6, 1190.6 151.1 Q 1190.6 153.7, 1189.4 155.2 Q 1188.1 156.6, 1185.8 156.6 Q 1183.4 156.6, 1182.2 155.2 Q 1180.9 153.7, 1180.9 151.1 M 1185.8 155.4 Q 1187.4 155.4, 1188.2 154.3 Q 1189.1 153.2, 1189.1 151.1 Q 1189.1 149.0, 1188.2 148.0 Q 1187.4 146.9, 1185.8 146.9 Q 1184.2 146.9, 1183.3 148.0 Q 1182.4 149.0, 1182.4 151.1 Q 1182.4 153.3, 1183.3 154.3 Q 1184.2 155.4, 1185.8 155.4 " fill="#FF0000"/>
<path class="atom-8" d="M 1191.4 147.5 L 1195.0 147.5 L 1195.0 148.3 L 1191.4 148.3 L 1191.4 147.5 " fill="#FF0000"/>
<path class="legend" d="M 1120.4 227.7 L 1120.4 239.8 L 1119.2 239.8 L 1119.0 238.8 Q 1118.0 240.0, 1116.5 240.0 Q 1114.8 240.0, 1113.8 238.9 Q 1112.9 237.8, 1112.9 235.8 Q 1112.9 233.8, 1114.0 232.6 Q 1115.2 231.5, 1117.1 231.5 Q 1118.0 231.5, 1118.9 231.7 L 1118.9 227.7 L 1120.4 227.7 M 1116.6 238.8 Q 1117.4 238.8, 1118.0 238.3 Q 1118.6 237.9, 1118.9 237.0 L 1118.9 232.9 Q 1118.1 232.6, 1117.1 232.6 Q 1115.9 232.6, 1115.2 233.5 Q 1114.4 234.3, 1114.4 235.8 Q 1114.4 237.3, 1115.0 238.0 Q 1115.6 238.8, 1116.6 238.8 " fill="#000000"/>
<path class="legend" d="M 1125.5 231.5 Q 1127.2 231.5, 1128.1 232.5 Q 1129.1 233.6, 1129.1 235.6 Q 1129.1 237.6, 1128.0 238.8 Q 1126.8 240.0, 1124.9 240.0 Q 1123.9 240.0, 1123.2 239.7 L 1123.2 243.8 L 1121.7 243.8 L 1121.7 231.6 L 1122.9 231.6 L 1123.1 232.6 Q 1123.5 232.0, 1124.1 231.8 Q 1124.7 231.5, 1125.5 231.5 M 1124.9 238.8 Q 1126.1 238.8, 1126.8 237.9 Q 1127.6 237.1, 1127.6 235.6 Q 1127.6 234.2, 1127.0 233.4 Q 1126.4 232.6, 1125.4 232.6 Q 1124.6 232.6, 1124.0 233.1 Q 1123.4 233.5, 1123.2 234.3 L 1123.2 238.5 Q 1124.0 238.8, 1124.9 238.8 " fill="#000000"/>
<path class="legend" d="M 1129.8 235.7 Q 1129.8 233.7, 1130.8 232.6 Q 1131.8 231.5, 1133.7 231.5 Q 1135.5 231.5, 1136.3 232.6 Q 1137.1 233.6, 1137.1 235.7 L 1137.1 235.9 L 1131.4 235.9 Q 1131.4 237.3, 1132.0 238.0 Q 1132.6 238.8, 1133.8 238.8 Q 1134.4 238.8, 1135.0 238.6 Q 1135.6 238.5, 1136.3 238.2 L 1136.8 239.2 Q 1136.0 239.6, 1135.2 239.8 Q 1134.5 240.0, 1133.7 240.0 Q 1131.9 240.0, 1130.8 238.8 Q 1129.8 237.7, 1129.8 235.7 M 1133.7 232.6 Q 1132.7 232.6, 1132.2 233.2 Q 1131.6 233.7, 1131.4 234.8 L 1135.5 234.8 Q 1135.4 233.7, 1135.0 233.2 Q 1134.5 232.6, 1133.7 232.6 " fill="#000000"/>
<path class="bond-0 atom-0 atom-1" d="M 22.8,371.2 L 56.7,355.4" style="fill:none;fill-rule:evenodd;stroke:#000000;stroke-width:2.0px;stroke-linecap:butt;stroke-linejoin:miter;stroke-opacity:1"/>
<path class="bond-0 atom-0 atom-1" d="M 26.0,378.0 L 59.9,362.2" style="fill:none;fill-rule:evenodd;stroke:#000000;stroke-width:2.0px;stroke-linecap:butt;stroke-linejoin:miter;stroke-opacity:1"/>
<path class="bond-1 atom-1 atom-2" d="M 58.3,358.8 L 88.9,380.3" style="fill:none;fill-rule:evenodd;stroke:#000000;stroke-width:2.0px;stroke-linecap:butt;stroke-linejoin:miter;stroke-opacity:1"/>
<path class="bond-2 atom-2 atom-3" d="M 88.9,380.3 L 122.8,364.6" style="fill:none;fill-rule:evenodd;stroke:#000000;stroke-width:2.0px;stroke-linecap:butt;stroke-linejoin:miter;stroke-opacity:1"/>
<path class="bond-3 atom-3 atom-4" d="M 122.8,364.6 L 153.4,386.0" style="fill:none;fill-rule:evenodd;stroke:#000000;stroke-width:2.0px;stroke-linecap:butt;stroke-linejoin:miter;stroke-opacity:1"/>
<path class="bond-4 atom-4 atom-5" d="M 153.4,386.0 L 187.3,370.3" style="fill:none;fill-rule:evenodd;stroke:#000000;stroke-width:2.0px;stroke-linecap:butt;stroke-linejoin:miter;stroke-opacity:1"/>
<path class="bond-5 atom-5 atom-6" d="M 183.6,370.0 L 185.0,354.7" style="fill:none;fill-rule:evenodd;stroke:#000000;stroke-width:2.0px;stroke-linecap:butt;stroke-linejoin:miter;stroke-opacity:1"/>
<path class="bond-5 atom-5 atom-6" d="M 185.0,354.7 L 186.3,339.5" style="fill:none;fill-rule:evenodd;stroke:#FF0000;stroke-width:2.0px;stroke-linecap:butt;stroke-linejoin:miter;stroke-opacity:1"/>
<path class="bond-5 atom-5 atom-6" d="M 191.1,370.6 L 192.4,355.4" style="fill:none;fill-rule:evenodd;stroke:#000000;stroke-width:2.0px;stroke-linecap:butt;stroke-linejoin:miter;stroke-opacity:1"/>
<path class="bond-5 atom-5 atom-6" d="M 192.4,355.4 L 193.8,340.1" style="fill:none;fill-rule:evenodd;stroke:#FF0000;stroke-width:2.0px;stroke-linecap:butt;stroke-linejoin:miter;stroke-opacity:1"/>
<path class="bond-6 atom-5 atom-7" d="M 187.3,370.3 L 199.6,378.9" style="fill:none;fill-rule:evenodd;stroke:#000000;stroke-width:2.0px;stroke-linecap:butt;stroke-linejoin:miter;stroke-opacity:1"/>
<path class="bond-6 atom-5 atom-7" d="M 199.6,378.9 L 211.8,387.5" style="fill:none;fill-rule:evenodd;stroke:#FF0000;stroke-width:2.0px;stroke-linecap:butt;stroke-linejoin:miter;stroke-opacity:1"/>
<path class="atom-6" d="M 185.8 333.1 Q 185.8 330.5, 187.0 329.1 Q 188.3 327.7, 190.6 327.7 Q 193.0 327.7, 194.2 329.1 Q 195.5 330.5, 195.5 333.1 Q 195.5 335.7, 194.2 337.1 Q 193.0 338.6, 190.6 338.6 Q 188.3 338.6, 187.0 337.1 Q 185.8 335.7, 185.8 333.1 M 190.6 337.4 Q 192.3 337.4, 193.1 336.3 Q 194.0 335.2, 194.0 333.1 Q 194.0 331.0, 193.1 330.0 Q 192.3 328.9, 190.6 328.9 Q 189.0 328.9, 188.1 329.9 Q 187.3 331.0, 187.3 333.1 Q 187.3 335.2, 188.1 336.3 Q 189.0 337.4, 190.6 337.4 " fill="#FF0000"/>
<path class="atom-7" d="M 213.1 391.8 Q 213.1 389.3, 214.3 387.8 Q 215.6 386.4, 217.9 386.4 Q 220.3 386.4, 221.5 387.8 Q 222.8 389.3, 222.8 391.8 Q 222.8 394.4, 221.5 395.8 Q 220.2 397.3, 217.9 397.3 Q 215.6 397.3, 214.3 395.8 Q 213.1 394.4, 213.1 391.8 M 217.9 396.1 Q 219.5 396.1, 220.4 395.0 Q 221.3 393.9, 221.3 391.8 Q 221.3 389.7, 220.4 388.7 Q 219.5 387.6, 217.9 387.6 Q 216.3 387.6, 215.4 388.7 Q 214.6 389.7, 214.6 391.8 Q 214.6 393.9, 215.4 395.0 Q 216.3 396.1, 217.9 396.1 " fill="#FF0000"/>
<path class="atom-7" d="M 223.5 388.2 L 227.2 388.2 L 227.2 388.9 L 223.5 388.9 L 223.5 388.2 " fill="#FF0000"/>
<path class="legend" d="M 117.4 485.3 Q 118.7 485.3, 119.4 486.0 Q 120.1 486.8, 120.1 488.2 L 120.1 493.6 L 118.6 493.6 L 118.6 488.3 Q 118.6 487.3, 118.2 486.9 Q 117.8 486.4, 117.0 486.4 Q 116.3 486.4, 115.6 486.8 Q 115.0 487.1, 114.6 487.7 L 114.6 493.6 L 113.1 493.6 L 113.1 481.5 L 114.6 481.5 L 114.6 486.4 Q 115.7 485.3, 117.4 485.3 " fill="#000000"/>
<path class="legend" d="M 124.3 489.4 L 121.5 485.4 L 123.3 485.4 L 125.3 488.2 L 127.2 485.4 L 128.8 485.4 L 126.1 489.4 L 129.1 493.6 L 127.3 493.6 L 125.1 490.5 L 123.0 493.6 L 121.3 493.6 L 124.3 489.4 " fill="#000000"/>
<path class="legend" d="M 133.3 486.5 Q 134.3 486.5, 135.2 487.0 Q 136.0 487.4, 136.4 488.2 Q 136.9 489.0, 136.9 490.0 Q 136.9 491.2, 136.3 492.1 Q 135.8 492.9, 134.8 493.3 Q 133.9 493.8, 132.8 493.8 Q 131.8 493.8, 130.8 493.4 Q 129.9 493.0, 129.2 492.2 L 130.2 491.3 Q 130.7 491.8, 131.4 492.2 Q 132.2 492.5, 132.9 492.5 Q 133.9 492.5, 134.6 491.8 Q 135.3 491.2, 135.3 490.1 Q 135.3 488.9, 134.6 488.3 Q 133.9 487.7, 132.8 487.7 Q 131.8 487.7, 130.7 488.2 L 129.8 487.8 L 130.4 482.3 L 136.2 482.3 L 136.0 483.6 L 131.7 483.6 L 131.3 486.9 Q 132.4 486.5, 133.3 486.5 " fill="#000000"/>
<path class="bond-0 atom-0 atom-1" d="M 488.6,353.5 L 457.2,373.6" style="fill:none;fill-rule:evenodd;stroke:#000000;stroke-width:2.0px;stroke-linecap:butt;stroke-linejoin:miter;stroke-opacity:1"/>
<path class="bond-1 atom-1 atom-2" d="M 457.2,373.6 L 423.9,356.5" style="fill:none;fill-rule:evenodd;stroke:#000000;stroke-width:2.0px;stroke-linecap:butt;stroke-linejoin:miter;stroke-opacity:1"/>
<path class="bond-2 atom-2 atom-3" d="M 423.9,356.5 L 392.5,376.7" style="fill:none;fill-rule:evenodd;stroke:#000000;stroke-width:2.0px;stroke-linecap:butt;stroke-linejoin:miter;stroke-opacity:1"/>
<path class="bond-3 atom-3 atom-4" d="M 392.5,376.7 L 359.3,359.5" style="fill:none;fill-rule:evenodd;stroke:#000000;stroke-width:2.0px;stroke-linecap:butt;stroke-linejoin:miter;stroke-opacity:1"/>
<path class="bond-4 atom-4 atom-5" d="M 359.3,359.5 L 327.8,379.7" style="fill:none;fill-rule:evenodd;stroke:#000000;stroke-width:2.0px;stroke-linecap:butt;stroke-linejoin:miter;stroke-opacity:1"/>
<path class="bond-5 atom-5 atom-6" d="M 327.8,379.7 L 313.8,372.4" style="fill:none;fill-rule:evenodd;stroke:#000000;stroke-width:2.0px;stroke-linecap:butt;stroke-linejoin:miter;stroke-opacity:1"/>
<path class="bond-5 atom-5 atom-6" d="M 313.8,372.4 L 299.8,365.2" style="fill:none;fill-rule:evenodd;stroke:#0000FF;stroke-width:2.0px;stroke-linecap:butt;stroke-linejoin:miter;stroke-opacity:1"/>
<path class="bond-6 atom-6 atom-7" d="M 291.2,369.0 L 284.3,382.4" style="fill:none;fill-rule:evenodd;stroke:#0000FF;stroke-width:2.0px;stroke-linecap:butt;stroke-linejoin:miter;stroke-opacity:1"/>
<path class="bond-6 atom-6 atom-7" d="M 284.3,382.4 L 277.4,395.7" style="fill:none;fill-rule:evenodd;stroke:#000000;stroke-width:2.0px;stroke-linecap:butt;stroke-linejoin:miter;stroke-opacity:1"/>
<path class="bond-7 atom-6 atom-8" d="M 298.0,356.0 L 304.8,342.6" style="fill:none;fill-rule:evenodd;stroke:#0000FF;stroke-width:2.0px;stroke-linecap:butt;stroke-linejoin:miter;stroke-opacity:1"/>
<path class="bond-7 atom-6 atom-8" d="M 304.8,342.6 L 311.7,329.3" style="fill:none;fill-rule:evenodd;stroke:#000000;stroke-width:2.0px;stroke-linecap:butt;stroke-linejoin:miter;stroke-opacity:1"/>
<path class="bond-8 atom-6 atom-9" d="M 289.3,359.8 L 275.3,352.6" style="fill:none;fill-rule:evenodd;stroke:#0000FF;stroke-width:2.0px;stroke-linecap:butt;stroke-linejoin:miter;stroke-opacity:1"/>
<path class="bond-8 atom-6 atom-9" d="M 275.3,352.6 L 261.4,345.3" style="fill:none;fill-rule:evenodd;stroke:#000000;stroke-width:2.0px;stroke-linecap:butt;stroke-linejoin:miter;stroke-opacity:1"/>
<path class="atom-6" d="M 292.2 357.2 L 295.7 362.8 Q 296.0 363.4, 296.6 364.4 Q 297.2 365.4, 297.2 365.4 L 297.2 357.2 L 298.6 357.2 L 298.6 367.8 L 297.1 367.8 L 293.4 361.7 Q 293.0 360.9, 292.5 360.1 Q 292.1 359.3, 291.9 359.0 L 291.9 367.8 L 290.6 367.8 L 290.6 357.2 L 292.2 357.2 " fill="#0000FF"/>
<path class="atom-6" d="M 299.8 359.1 L 301.7 359.1 L 301.7 357.2 L 302.5 357.2 L 302.5 359.1 L 304.4 359.1 L 304.4 359.8 L 302.5 359.8 L 302.5 361.8 L 301.7 361.8 L 301.7 359.8 L 299.8 359.8 L 299.8 359.1 " fill="#0000FF"/>
<path class="legend" d="M 367.8 485.2 Q 369.2 485.2, 369.8 485.9 Q 370.5 486.7, 370.5 488.1 L 370.5 493.6 L 369.0 493.6 L 369.0 488.2 Q 369.0 487.3, 368.7 486.8 Q 368.3 486.4, 367.5 486.4 Q 366.7 486.4, 366.1 486.7 Q 365.5 487.1, 365.1 487.7 L 365.1 493.6 L 363.6 493.6 L 363.6 481.4 L 365.1 481.4 L 365.1 486.4 Q 366.1 485.2, 367.8 485.2 " fill="#000000"/>
<path class="legend" d="M 374.8 489.3 L 372.0 485.3 L 373.7 485.3 L 375.7 488.1 L 377.7 485.3 L 379.3 485.3 L 376.5 489.3 L 379.5 493.6 L 377.8 493.6 L 375.6 490.5 L 373.4 493.6 L 371.8 493.6 L 374.8 489.3 " fill="#000000"/>
<path class="legend" d="M 379.7 491.3 Q 379.7 490.0, 380.7 489.3 Q 381.8 488.6, 383.7 488.6 L 384.9 488.6 L 384.9 488.3 Q 384.9 487.2, 384.5 486.8 Q 384.1 486.4, 383.1 486.4 Q 382.4 486.4, 381.9 486.5 Q 381.4 486.6, 380.6 487.0 L 380.1 485.9 Q 381.6 485.2, 383.1 485.2 Q 384.8 485.2, 385.6 485.9 Q 386.4 486.7, 386.4 488.3 L 386.4 493.6 L 385.3 493.6 Q 385.3 493.5, 385.2 493.3 Q 385.2 493.0, 385.1 492.6 Q 383.9 493.8, 382.4 493.8 Q 381.2 493.8, 380.4 493.1 Q 379.7 492.4, 379.7 491.3 M 381.2 491.3 Q 381.2 491.9, 381.6 492.2 Q 382.0 492.6, 382.7 492.6 Q 383.3 492.6, 383.9 492.3 Q 384.5 492.0, 384.9 491.5 L 384.9 489.7 L 383.8 489.7 Q 382.5 489.7, 381.8 490.1 Q 381.2 490.5, 381.2 491.3 " fill="#000000"/>
<path class="bond-0 atom-0 atom-1" d="M 723.5,364.6 L 690.4,347.3" style="fill:none;fill-rule:evenodd;stroke:#000000;stroke-width:2.0px;stroke-linecap:butt;stroke-linejoin:miter;stroke-opacity:1"/>
<path class="bond-0 atom-0 atom-1" d="M 720.0,371.3 L 691.9,356.5" style="fill:none;fill-rule:evenodd;stroke:#000000;stroke-width:2.0px;stroke-linecap:butt;stroke-linejoin:miter;stroke-opacity:1"/>
<path class="bond-0 atom-0 atom-1" d="M 727.0,358.0 L 698.8,343.2" style="fill:none;fill-rule:evenodd;stroke:#000000;stroke-width:2.0px;stroke-linecap:butt;stroke-linejoin:miter;stroke-opacity:1"/>
<path class="bond-1 atom-1 atom-2" d="M 690.4,347.3 L 657.3,329.9" style="fill:none;fill-rule:evenodd;stroke:#000000;stroke-width:2.0px;stroke-linecap:butt;stroke-linejoin:miter;stroke-opacity:1"/>
<path class="bond-2 atom-2 atom-3" d="M 657.3,329.9 L 625.7,349.8" style="fill:none;fill-rule:evenodd;stroke:#000000;stroke-width:2.0px;stroke-linecap:butt;stroke-linejoin:miter;stroke-opacity:1"/>
<path class="bond-3 atom-3 atom-4" d="M 625.7,349.8 L 592.6,332.5" style="fill:none;fill-rule:evenodd;stroke:#000000;stroke-width:2.0px;stroke-linecap:butt;stroke-linejoin:miter;stroke-opacity:1"/>
<path class="bond-4 atom-4 atom-5" d="M 592.6,332.5 L 561.0,352.4" style="fill:none;fill-rule:evenodd;stroke:#000000;stroke-width:2.0px;stroke-linecap:butt;stroke-linejoin:miter;stroke-opacity:1"/>
<path class="bond-5 atom-5 atom-6" d="M 564.7,352.3 L 565.3,367.7" style="fill:none;fill-rule:evenodd;stroke:#000000;stroke-width:2.0px;stroke-linecap:butt;stroke-linejoin:miter;stroke-opacity:1"/>
<path class="bond-5 atom-5 atom-6" d="M 565.3,367.7 L 566.0,383.1" style="fill:none;fill-rule:evenodd;stroke:#FF0000;stroke-width:2.0px;stroke-linecap:butt;stroke-linejoin:miter;stroke-opacity:1"/>
<path class="bond-5 atom-5 atom-6" d="M 557.3,352.6 L 557.9,368.0" style="fill:none;fill-rule:evenodd;stroke:#000000;stroke-width:2.0px;stroke-linecap:butt;stroke-linejoin:miter;stroke-opacity:1"/>
<path class="bond-5 atom-5 atom-6" d="M 557.9,368.0 L 558.5,383.4" style="fill:none;fill-rule:evenodd;stroke:#FF0000;stroke-width:2.0px;stroke-linecap:butt;stroke-linejoin:miter;stroke-opacity:1"/>
<path class="bond-6 atom-5 atom-7" d="M 561.0,352.4 L 547.5,345.3" style="fill:none;fill-rule:evenodd;stroke:#000000;stroke-width:2.0px;stroke-linecap:butt;stroke-linejoin:miter;stroke-opacity:1"/>
<path class="bond-6 atom-5 atom-7" d="M 547.5,345.3 L 534.0,338.2" style="fill:none;fill-rule:evenodd;stroke:#FF0000;stroke-width:2.0px;stroke-linecap:butt;stroke-linejoin:miter;stroke-opacity:1"/>
<path class="atom-6" d="M 557.6 389.8 Q 557.6 387.3, 558.9 385.9 Q 560.1 384.4, 562.5 384.4 Q 564.8 384.4, 566.1 385.9 Q 567.3 387.3, 567.3 389.8 Q 567.3 392.4, 566.1 393.9 Q 564.8 395.3, 562.5 395.3 Q 560.1 395.3, 558.9 393.9 Q 557.6 392.4, 557.6 389.8 M 562.5 394.1 Q 564.1 394.1, 565.0 393.0 Q 565.8 391.9, 565.8 389.8 Q 565.8 387.7, 565.0 386.7 Q 564.1 385.6, 562.5 385.6 Q 560.9 385.6, 560.0 386.7 Q 559.1 387.7, 559.1 389.8 Q 559.1 392.0, 560.0 393.0 Q 560.9 394.1, 562.5 394.1 " fill="#FF0000"/>
<path class="atom-7" d="M 523.0 335.1 Q 523.0 332.5, 524.3 331.1 Q 525.5 329.7, 527.9 329.7 Q 530.2 329.7, 531.5 331.1 Q 532.7 332.5, 532.7 335.1 Q 532.7 337.6, 531.5 339.1 Q 530.2 340.6, 527.9 340.6 Q 525.6 340.6, 524.3 339.1 Q 523.0 337.7, 523.0 335.1 M 527.9 339.4 Q 529.5 339.4, 530.4 338.3 Q 531.3 337.2, 531.3 335.1 Q 531.3 333.0, 530.4 332.0 Q 529.5 330.9, 527.9 330.9 Q 526.3 330.9, 525.4 331.9 Q 524.5 333.0, 524.5 335.1 Q 524.5 337.2, 525.4 338.3 Q 526.3 339.4, 527.9 339.4 " fill="#FF0000"/>
<path class="atom-7" d="M 533.5 331.4 L 537.1 331.4 L 537.1 332.2 L 533.5 332.2 L 533.5 331.4 " fill="#FF0000"/>
<path class="legend" d="M 617.3 481.4 Q 618.6 481.4, 619.3 482.2 Q 620.0 483.0, 620.0 484.4 L 620.0 489.8 L 618.5 489.8 L 618.5 484.5 Q 618.5 483.5, 618.1 483.1 Q 617.8 482.6, 616.9 482.6 Q 616.2 482.6, 615.6 483.0 Q 614.9 483.3, 614.5 483.9 L 614.5 489.8 L 613.0 489.8 L 613.0 477.7 L 614.5 477.7 L 614.5 482.6 Q 615.6 481.4, 617.3 481.4 " fill="#000000"/>
<path class="legend" d="M 624.3 485.6 L 621.5 481.6 L 623.2 481.6 L 625.2 484.4 L 627.2 481.6 L 628.8 481.6 L 626.0 485.5 L 629.0 489.8 L 627.3 489.8 L 625.1 486.7 L 622.9 489.8 L 621.3 489.8 L 624.3 485.6 " fill="#000000"/>
<path class="legend" d="M 635.5 481.6 L 637.0 481.6 L 632.7 493.8 L 631.4 493.8 L 632.7 489.8 L 632.1 489.8 L 629.2 481.6 L 630.7 481.6 L 633.1 488.6 L 635.5 481.6 " fill="#000000"/>
<path class="bond-0 atom-1 atom-0" d="M 895.0,343.7 L 914.2,311.4 L 920.2,315.9 Z" style="fill:#000000;fill-rule:evenodd;fill-opacity:1;stroke:#000000;stroke-width:1.0px;stroke-linecap:butt;stroke-linejoin:miter;stroke-opacity:1;"/>
<path class="bond-1 atom-1 atom-2" d="M 895.0,343.7 L 857.9,339.5" style="fill:none;fill-rule:evenodd;stroke:#000000;stroke-width:2.0px;stroke-linecap:butt;stroke-linejoin:miter;stroke-opacity:1"/>
<path class="bond-2 atom-2 atom-3" d="M 857.9,339.5 L 835.6,369.6" style="fill:none;fill-rule:evenodd;stroke:#000000;stroke-width:2.0px;stroke-linecap:butt;stroke-linejoin:miter;stroke-opacity:1"/>
<path class="bond-3 atom-3 atom-4" d="M 835.2,373.3 L 798.1,369.1" style="fill:none;fill-rule:evenodd;stroke:#000000;stroke-width:2.0px;stroke-linecap:butt;stroke-linejoin:miter;stroke-opacity:1"/>
<path class="bond-3 atom-3 atom-4" d="M 836.1,365.8 L 798.9,361.6" style="fill:none;fill-rule:evenodd;stroke:#000000;stroke-width:2.0px;stroke-linecap:butt;stroke-linejoin:miter;stroke-opacity:1"/>
<path class="bond-4 atom-1 atom-5" d="M 895.0,343.7 L 909.9,378.0" style="fill:none;fill-rule:evenodd;stroke:#000000;stroke-width:2.0px;stroke-linecap:butt;stroke-linejoin:miter;stroke-opacity:1"/>
<path class="bond-5 atom-5 atom-6" d="M 910.4,374.3 L 925.9,376.0" style="fill:none;fill-rule:evenodd;stroke:#000000;stroke-width:2.0px;stroke-linecap:butt;stroke-linejoin:miter;stroke-opacity:1"/>
<path class="bond-5 atom-5 atom-6" d="M 925.9,376.0 L 941.4,377.8" style="fill:none;fill-rule:evenodd;stroke:#FF0000;stroke-width:2.0px;stroke-linecap:butt;stroke-linejoin:miter;stroke-opacity:1"/>
<path class="bond-5 atom-5 atom-6" d="M 909.5,381.7 L 925.0,383.5" style="fill:none;fill-rule:evenodd;stroke:#000000;stroke-width:2.0px;stroke-linecap:butt;stroke-linejoin:miter;stroke-opacity:1"/>
<path class="bond-5 atom-5 atom-6" d="M 925.0,383.5 L 940.6,385.2" style="fill:none;fill-rule:evenodd;stroke:#FF0000;stroke-width:2.0px;stroke-linecap:butt;stroke-linejoin:miter;stroke-opacity:1"/>
<path class="bond-6 atom-5 atom-7" d="M 909.9,378.0 L 901.3,389.7" style="fill:none;fill-rule:evenodd;stroke:#000000;stroke-width:2.0px;stroke-linecap:butt;stroke-linejoin:miter;stroke-opacity:1"/>
<path class="bond-6 atom-5 atom-7" d="M 901.3,389.7 L 892.6,401.5" style="fill:none;fill-rule:evenodd;stroke:#FF0000;stroke-width:2.0px;stroke-linecap:butt;stroke-linejoin:miter;stroke-opacity:1"/>
<path class="atom-6" d="M 942.2 382.2 Q 942.2 379.7, 943.5 378.3 Q 944.7 376.9, 947.1 376.9 Q 949.4 376.9, 950.7 378.3 Q 951.9 379.7, 951.9 382.2 Q 951.9 384.8, 950.7 386.3 Q 949.4 387.7, 947.1 387.7 Q 944.7 387.7, 943.5 386.3 Q 942.2 384.8, 942.2 382.2 M 947.1 386.5 Q 948.7 386.5, 949.6 385.5 Q 950.4 384.4, 950.4 382.2 Q 950.4 380.2, 949.6 379.1 Q 948.7 378.1, 947.1 378.1 Q 945.5 378.1, 944.6 379.1 Q 943.7 380.1, 943.7 382.2 Q 943.7 384.4, 944.6 385.5 Q 945.5 386.5, 947.1 386.5 " fill="#FF0000"/>
<path class="atom-7" d="M 882.8 408.1 Q 882.8 405.5, 884.1 404.1 Q 885.4 402.7, 887.7 402.7 Q 890.1 402.7, 891.3 404.1 Q 892.6 405.5, 892.6 408.1 Q 892.6 410.7, 891.3 412.1 Q 890.0 413.6, 887.7 413.6 Q 885.4 413.6, 884.1 412.1 Q 882.8 410.7, 882.8 408.1 M 887.7 412.4 Q 889.3 412.4, 890.2 411.3 Q 891.1 410.2, 891.1 408.1 Q 891.1 406.0, 890.2 405.0 Q 889.3 403.9, 887.7 403.9 Q 886.1 403.9, 885.2 404.9 Q 884.3 406.0, 884.3 408.1 Q 884.3 410.2, 885.2 411.3 Q 886.1 412.4, 887.7 412.4 " fill="#FF0000"/>
<path class="atom-7" d="M 893.3 404.4 L 896.9 404.4 L 896.9 405.2 L 893.3 405.2 L 893.3 404.4 " fill="#FF0000"/>
<path class="legend" d="M 869.3 481.5 Q 870.7 481.5, 871.4 482.2 Q 872.1 482.9, 872.1 484.4 L 872.1 489.8 L 870.6 489.8 L 870.6 484.5 Q 870.6 483.5, 870.2 483.1 Q 869.8 482.6, 869.0 482.6 Q 868.3 482.6, 867.6 483.0 Q 867.0 483.3, 866.7 483.9 Q 866.7 484.1, 866.7 484.4 L 866.7 489.8 L 865.2 489.8 L 865.2 484.5 Q 865.2 483.5, 864.8 483.1 Q 864.4 482.6, 863.6 482.6 Q 862.9 482.6, 862.3 483.0 Q 861.6 483.3, 861.3 483.9 L 861.3 489.8 L 859.8 489.8 L 859.8 481.6 L 861.0 481.6 L 861.2 482.7 Q 862.2 481.5, 863.9 481.5 Q 865.8 481.5, 866.4 482.9 Q 867.5 481.5, 869.3 481.5 " fill="#000000"/>
<path class="legend" d="M 880.7 485.9 L 882.0 485.9 L 882.0 487.2 L 880.7 487.2 L 880.7 489.8 L 879.2 489.8 L 879.2 487.2 L 873.3 487.2 L 873.3 486.2 L 878.3 478.5 L 880.7 478.5 L 880.7 485.9 M 875.2 485.9 L 879.2 485.9 L 879.2 479.5 L 875.2 485.9 " fill="#000000"/>
<path class="legend" d="M 886.6 481.5 Q 888.3 481.5, 889.3 482.5 Q 890.2 483.6, 890.2 485.6 Q 890.2 487.6, 889.1 488.8 Q 888.0 490.0, 886.0 490.0 Q 885.1 490.0, 884.3 489.7 L 884.3 493.8 L 882.8 493.8 L 882.8 481.6 L 884.0 481.6 L 884.2 482.6 Q 884.6 482.0, 885.2 481.8 Q 885.9 481.5, 886.6 481.5 M 886.0 488.8 Q 887.3 488.8, 888.0 487.9 Q 888.7 487.1, 888.7 485.6 Q 888.7 484.2, 888.1 483.4 Q 887.6 482.6, 886.5 482.6 Q 885.7 482.6, 885.1 483.1 Q 884.5 483.5, 884.3 484.3 L 884.3 488.5 Q 885.1 488.8, 886.0 488.8 " fill="#000000"/>
<path class="bond-0 atom-0 atom-1" d="M 1042.7,340.7 L 1070.9,365.2" style="fill:none;fill-rule:evenodd;stroke:#000000;stroke-width:2.0px;stroke-linecap:butt;stroke-linejoin:miter;stroke-opacity:1"/>
<path class="bond-1 atom-1 atom-2" d="M 1070.9,365.2 L 1063.9,401.9" style="fill:none;fill-rule:evenodd;stroke:#000000;stroke-width:2.0px;stroke-linecap:butt;stroke-linejoin:miter;stroke-opacity:1"/>
<path class="bond-2 atom-1 atom-3" d="M 1070.9,365.2 L 1106.3,352.9" style="fill:none;fill-rule:evenodd;stroke:#000000;stroke-width:2.0px;stroke-linecap:butt;stroke-linejoin:miter;stroke-opacity:1"/>
<path class="bond-3 atom-3 atom-4" d="M 1106.3,352.9 L 1134.5,377.4" style="fill:none;fill-rule:evenodd;stroke:#000000;stroke-width:2.0px;stroke-linecap:butt;stroke-linejoin:miter;stroke-opacity:1"/>
<path class="bond-4 atom-4 atom-5" d="M 1134.5,377.4 L 1169.8,365.2" style="fill:none;fill-rule:evenodd;stroke:#000000;stroke-width:2.0px;stroke-linecap:butt;stroke-linejoin:miter;stroke-opacity:1"/>
<path class="bond-5 atom-5 atom-6" d="M 1166.2,364.5 L 1169.1,349.5" style="fill:none;fill-rule:evenodd;stroke:#000000;stroke-width:2.0px;stroke-linecap:butt;stroke-linejoin:miter;stroke-opacity:1"/>
<path class="bond-5 atom-5 atom-6" d="M 1169.1,349.5 L 1171.9,334.5" style="fill:none;fill-rule:evenodd;stroke:#FF0000;stroke-width:2.0px;stroke-linecap:butt;stroke-linejoin:miter;stroke-opacity:1"/>
<path class="bond-5 atom-5 atom-6" d="M 1173.5,365.9 L 1176.4,350.9" style="fill:none;fill-rule:evenodd;stroke:#000000;stroke-width:2.0px;stroke-linecap:butt;stroke-linejoin:miter;stroke-opacity:1"/>
<path class="bond-5 atom-5 atom-6" d="M 1176.4,350.9 L 1179.3,335.9" style="fill:none;fill-rule:evenodd;stroke:#FF0000;stroke-width:2.0px;stroke-linecap:butt;stroke-linejoin:miter;stroke-opacity:1"/>
<path class="bond-6 atom-5 atom-7" d="M 1169.8,365.2 L 1180.9,374.8" style="fill:none;fill-rule:evenodd;stroke:#000000;stroke-width:2.0px;stroke-linecap:butt;stroke-linejoin:miter;stroke-opacity:1"/>
<path class="bond-6 atom-5 atom-7" d="M 1180.9,374.8 L 1192.0,384.4" style="fill:none;fill-rule:evenodd;stroke:#FF0000;stroke-width:2.0px;stroke-linecap:butt;stroke-linejoin:miter;stroke-opacity:1"/>
<path class="atom-6" d="M 1172.0 328.5 Q 1172.0 326.0, 1173.3 324.5 Q 1174.6 323.1, 1176.9 323.1 Q 1179.3 323.1, 1180.5 324.5 Q 1181.8 326.0, 1181.8 328.5 Q 1181.8 331.1, 1180.5 332.5 Q 1179.2 334.0, 1176.9 334.0 Q 1174.6 334.0, 1173.3 332.5 Q 1172.0 331.1, 1172.0 328.5 M 1176.9 332.8 Q 1178.5 332.8, 1179.4 331.7 Q 1180.3 330.6, 1180.3 328.5 Q 1180.3 326.4, 1179.4 325.4 Q 1178.5 324.3, 1176.9 324.3 Q 1175.3 324.3, 1174.4 325.4 Q 1173.5 326.4, 1173.5 328.5 Q 1173.5 330.6, 1174.4 331.7 Q 1175.3 332.8, 1176.9 332.8 " fill="#FF0000"/>
<path class="atom-7" d="M 1193.2 389.7 Q 1193.2 387.1, 1194.5 385.7 Q 1195.8 384.3, 1198.1 384.3 Q 1200.5 384.3, 1201.7 385.7 Q 1203.0 387.1, 1203.0 389.7 Q 1203.0 392.3, 1201.7 393.7 Q 1200.4 395.2, 1198.1 395.2 Q 1195.8 395.2, 1194.5 393.7 Q 1193.2 392.3, 1193.2 389.7 M 1198.1 394.0 Q 1199.7 394.0, 1200.6 392.9 Q 1201.5 391.8, 1201.5 389.7 Q 1201.5 387.6, 1200.6 386.6 Q 1199.7 385.5, 1198.1 385.5 Q 1196.5 385.5, 1195.6 386.5 Q 1194.7 387.6, 1194.7 389.7 Q 1194.7 391.8, 1195.6 392.9 Q 1196.5 394.0, 1198.1 394.0 " fill="#FF0000"/>
<path class="atom-7" d="M 1203.7 386.0 L 1207.3 386.0 L 1207.3 386.8 L 1203.7 386.8 L 1203.7 386.0 " fill="#FF0000"/>
<path class="legend" d="M 1120.0 481.5 Q 1121.4 481.5, 1122.1 482.2 Q 1122.8 483.0, 1122.8 484.4 L 1122.8 489.8 L 1121.3 489.8 L 1121.3 484.5 Q 1121.3 483.5, 1120.9 483.1 Q 1120.6 482.6, 1119.7 482.6 Q 1119.0 482.6, 1118.4 483.0 Q 1117.8 483.3, 1117.4 483.9 Q 1117.4 484.1, 1117.4 484.4 L 1117.4 489.8 L 1115.9 489.8 L 1115.9 484.5 Q 1115.9 483.5, 1115.5 483.1 Q 1115.2 482.6, 1114.3 482.6 Q 1113.6 482.6, 1113.0 483.0 Q 1112.4 483.3, 1112.0 483.9 L 1112.0 489.8 L 1110.5 489.8 L 1110.5 481.6 L 1111.7 481.6 L 1111.9 482.7 Q 1113.0 481.5, 1114.6 481.5 Q 1116.6 481.5, 1117.2 482.9 Q 1118.3 481.5, 1120.0 481.5 " fill="#000000"/>
<path class="legend" d="M 1127.9 481.5 Q 1129.6 481.5, 1130.5 482.5 Q 1131.5 483.6, 1131.5 485.6 Q 1131.5 487.6, 1130.4 488.8 Q 1129.2 490.0, 1127.3 490.0 Q 1126.3 490.0, 1125.6 489.7 L 1125.6 493.8 L 1124.0 493.8 L 1124.0 481.6 L 1125.3 481.6 L 1125.5 482.6 Q 1125.9 482.0, 1126.5 481.8 Q 1127.1 481.5, 1127.9 481.5 M 1127.2 488.8 Q 1128.5 488.8, 1129.2 487.9 Q 1130.0 487.1, 1130.0 485.6 Q 1130.0 484.2, 1129.4 483.4 Q 1128.8 482.6, 1127.8 482.6 Q 1127.0 482.6, 1126.4 483.1 Q 1125.8 483.5, 1125.6 484.3 L 1125.6 488.5 Q 1126.4 488.8, 1127.2 488.8 " fill="#000000"/>
<path class="legend" d="M 1132.2 485.7 Q 1132.2 483.7, 1133.2 482.6 Q 1134.2 481.5, 1136.1 481.5 Q 1137.9 481.5, 1138.7 482.6 Q 1139.5 483.6, 1139.5 485.7 L 1139.5 485.9 L 1133.7 485.9 Q 1133.8 487.3, 1134.4 488.0 Q 1135.0 488.8, 1136.2 488.8 Q 1136.8 488.8, 1137.4 488.6 Q 1138.0 488.5, 1138.7 488.2 L 1139.2 489.2 Q 1138.4 489.6, 1137.6 489.8 Q 1136.9 490.0, 1136.1 490.0 Q 1134.3 490.0, 1133.2 488.8 Q 1132.2 487.7, 1132.2 485.7 M 1136.1 482.6 Q 1135.1 482.6, 1134.5 483.2 Q 1134.0 483.7, 1133.8 484.8 L 1137.9 484.8 Q 1137.8 483.7, 1137.3 483.2 Q 1136.9 482.6, 1136.1 482.6 " fill="#000000"/>
<path class="bond-0 atom-0 atom-1" d="M 122.8,671.3 L 90.4,652.6" style="fill:none;fill-rule:evenodd;stroke:#000000;stroke-width:2.0px;stroke-linecap:butt;stroke-linejoin:miter;stroke-opacity:1"/>
<path class="bond-0 atom-0 atom-1" d="M 121.7,662.0 L 99.0,648.9" style="fill:none;fill-rule:evenodd;stroke:#000000;stroke-width:2.0px;stroke-linecap:butt;stroke-linejoin:miter;stroke-opacity:1"/>
<path class="bond-1 atom-1 atom-2" d="M 90.4,652.6 L 90.4,615.2" style="fill:none;fill-rule:evenodd;stroke:#000000;stroke-width:2.0px;stroke-linecap:butt;stroke-linejoin:miter;stroke-opacity:1"/>
<path class="bond-2 atom-2 atom-3" d="M 90.4,615.2 L 122.8,596.5" style="fill:none;fill-rule:evenodd;stroke:#000000;stroke-width:2.0px;stroke-linecap:butt;stroke-linejoin:miter;stroke-opacity:1"/>
<path class="bond-2 atom-2 atom-3" d="M 99.0,618.8 L 121.7,605.8" style="fill:none;fill-rule:evenodd;stroke:#000000;stroke-width:2.0px;stroke-linecap:butt;stroke-linejoin:miter;stroke-opacity:1"/>
<path class="bond-3 atom-3 atom-4" d="M 122.8,596.5 L 155.2,615.2" style="fill:none;fill-rule:evenodd;stroke:#000000;stroke-width:2.0px;stroke-linecap:butt;stroke-linejoin:miter;stroke-opacity:1"/>
<path class="bond-4 atom-4 atom-5" d="M 155.2,615.2 L 155.2,652.6" style="fill:none;fill-rule:evenodd;stroke:#000000;stroke-width:2.0px;stroke-linecap:butt;stroke-linejoin:miter;stroke-opacity:1"/>
<path class="bond-4 atom-4 atom-5" d="M 147.7,620.8 L 147.7,647.0" style="fill:none;fill-rule:evenodd;stroke:#000000;stroke-width:2.0px;stroke-linecap:butt;stroke-linejoin:miter;stroke-opacity:1"/>
<path class="bond-5 atom-4 atom-6" d="M 155.2,615.2 L 168.8,607.3" style="fill:none;fill-rule:evenodd;stroke:#000000;stroke-width:2.0px;stroke-linecap:butt;stroke-linejoin:miter;stroke-opacity:1"/>
<path class="bond-5 atom-4 atom-6" d="M 168.8,607.3 L 182.3,599.5" style="fill:none;fill-rule:evenodd;stroke:#0000FF;stroke-width:2.0px;stroke-linecap:butt;stroke-linejoin:miter;stroke-opacity:1"/>
<path class="bond-6 atom-6 atom-7" d="M 183.8,590.0 L 183.8,577.9" style="fill:none;fill-rule:evenodd;stroke:#0000FF;stroke-width:2.0px;stroke-linecap:butt;stroke-linejoin:miter;stroke-opacity:1"/>
<path class="bond-6 atom-6 atom-7" d="M 183.8,577.9 L 183.8,565.8" style="fill:none;fill-rule:evenodd;stroke:#FF0000;stroke-width:2.0px;stroke-linecap:butt;stroke-linejoin:miter;stroke-opacity:1"/>
<path class="bond-6 atom-6 atom-7" d="M 191.3,590.0 L 191.3,577.9" style="fill:none;fill-rule:evenodd;stroke:#0000FF;stroke-width:2.0px;stroke-linecap:butt;stroke-linejoin:miter;stroke-opacity:1"/>
<path class="bond-6 atom-6 atom-7" d="M 191.3,577.9 L 191.3,565.8" style="fill:none;fill-rule:evenodd;stroke:#FF0000;stroke-width:2.0px;stroke-linecap:butt;stroke-linejoin:miter;stroke-opacity:1"/>
<path class="bond-7 atom-6 atom-8" d="M 192.8,599.5 L 203.3,605.6" style="fill:none;fill-rule:evenodd;stroke:#0000FF;stroke-width:2.0px;stroke-linecap:butt;stroke-linejoin:miter;stroke-opacity:1"/>
<path class="bond-7 atom-6 atom-8" d="M 203.3,605.6 L 213.9,611.7" style="fill:none;fill-rule:evenodd;stroke:#FF0000;stroke-width:2.0px;stroke-linecap:butt;stroke-linejoin:miter;stroke-opacity:1"/>
<path class="bond-8 atom-2 atom-9" d="M 90.4,615.2 L 58.1,596.5" style="fill:none;fill-rule:evenodd;stroke:#000000;stroke-width:2.0px;stroke-linecap:butt;stroke-linejoin:miter;stroke-opacity:1"/>
<path class="bond-9 atom-9 atom-10" d="M 59.9,599.7 L 46.8,607.3" style="fill:none;fill-rule:evenodd;stroke:#000000;stroke-width:2.0px;stroke-linecap:butt;stroke-linejoin:miter;stroke-opacity:1"/>
<path class="bond-9 atom-9 atom-10" d="M 46.8,607.3 L 33.6,614.9" style="fill:none;fill-rule:evenodd;stroke:#FF0000;stroke-width:2.0px;stroke-linecap:butt;stroke-linejoin:miter;stroke-opacity:1"/>
<path class="bond-9 atom-9 atom-10" d="M 56.2,593.2 L 43.0,600.8" style="fill:none;fill-rule:evenodd;stroke:#000000;stroke-width:2.0px;stroke-linecap:butt;stroke-linejoin:miter;stroke-opacity:1"/>
<path class="bond-9 atom-9 atom-10" d="M 43.0,600.8 L 29.9,608.4" style="fill:none;fill-rule:evenodd;stroke:#FF0000;stroke-width:2.0px;stroke-linecap:butt;stroke-linejoin:miter;stroke-opacity:1"/>
<path class="bond-10 atom-9 atom-11" d="M 58.1,596.5 L 58.1,581.2" style="fill:none;fill-rule:evenodd;stroke:#000000;stroke-width:2.0px;stroke-linecap:butt;stroke-linejoin:miter;stroke-opacity:1"/>
<path class="bond-10 atom-9 atom-11" d="M 58.1,581.2 L 58.1,565.8" style="fill:none;fill-rule:evenodd;stroke:#FF0000;stroke-width:2.0px;stroke-linecap:butt;stroke-linejoin:miter;stroke-opacity:1"/>
<path class="bond-11 atom-5 atom-0" d="M 155.2,652.6 L 122.8,671.3" style="fill:none;fill-rule:evenodd;stroke:#000000;stroke-width:2.0px;stroke-linecap:butt;stroke-linejoin:miter;stroke-opacity:1"/>
<path class="atom-6" d="M 185.2 591.2 L 188.7 596.8 Q 189.0 597.4, 189.6 598.4 Q 190.2 599.4, 190.2 599.4 L 190.2 591.2 L 191.6 591.2 L 191.6 601.8 L 190.1 601.8 L 186.4 595.6 Q 186.0 594.9, 185.5 594.1 Q 185.1 593.3, 184.9 593.0 L 184.9 601.8 L 183.6 601.8 L 183.6 591.2 L 185.2 591.2 " fill="#0000FF"/>
<path class="atom-6" d="M 192.8 593.1 L 194.7 593.1 L 194.7 591.1 L 195.5 591.1 L 195.5 593.1 L 197.4 593.1 L 197.4 593.8 L 195.5 593.8 L 195.5 595.8 L 194.7 595.8 L 194.7 593.8 L 192.8 593.8 L 192.8 593.1 " fill="#0000FF"/>
<path class="atom-7" d="M 182.7 559.1 Q 182.7 556.6, 184.0 555.2 Q 185.2 553.7, 187.6 553.7 Q 189.9 553.7, 191.2 555.2 Q 192.4 556.6, 192.4 559.1 Q 192.4 561.7, 191.2 563.2 Q 189.9 564.6, 187.6 564.6 Q 185.2 564.6, 184.0 563.2 Q 182.7 561.7, 182.7 559.1 M 187.6 563.4 Q 189.2 563.4, 190.1 562.3 Q 190.9 561.2, 190.9 559.1 Q 190.9 557.0, 190.1 556.0 Q 189.2 554.9, 187.6 554.9 Q 186.0 554.9, 185.1 556.0 Q 184.2 557.0, 184.2 559.1 Q 184.2 561.3, 185.1 562.3 Q 186.0 563.4, 187.6 563.4 " fill="#FF0000"/>
<path class="atom-8" d="M 215.1 615.2 Q 215.1 612.7, 216.3 611.2 Q 217.6 609.8, 219.9 609.8 Q 222.3 609.8, 223.6 611.2 Q 224.8 612.7, 224.8 615.2 Q 224.8 617.8, 223.5 619.2 Q 222.3 620.7, 219.9 620.7 Q 217.6 620.7, 216.3 619.2 Q 215.1 617.8, 215.1 615.2 M 219.9 619.5 Q 221.6 619.5, 222.4 618.4 Q 223.3 617.3, 223.3 615.2 Q 223.3 613.1, 222.4 612.1 Q 221.6 611.0, 219.9 611.0 Q 218.3 611.0, 217.5 612.1 Q 216.6 613.1, 216.6 615.2 Q 216.6 617.3, 217.5 618.4 Q 218.3 619.5, 219.9 619.5 " fill="#FF0000"/>
<path class="atom-8" d="M 225.6 611.6 L 229.2 611.6 L 229.2 612.3 L 225.6 612.3 L 225.6 611.6 " fill="#FF0000"/>
<path class="atom-10" d="M 20.8 615.2 Q 20.8 612.7, 22.1 611.2 Q 23.3 609.8, 25.7 609.8 Q 28.0 609.8, 29.3 611.2 Q 30.5 612.7, 30.5 615.2 Q 30.5 617.8, 29.3 619.2 Q 28.0 620.7, 25.7 620.7 Q 23.3 620.7, 22.1 619.2 Q 20.8 617.8, 20.8 615.2 M 25.7 619.5 Q 27.3 619.5, 28.2 618.4 Q 29.0 617.3, 29.0 615.2 Q 29.0 613.1, 28.2 612.1 Q 27.3 611.0, 25.7 611.0 Q 24.1 611.0, 23.2 612.1 Q 22.3 613.1, 22.3 615.2 Q 22.3 617.3, 23.2 618.4 Q 24.1 619.5, 25.7 619.5 " fill="#FF0000"/>
<path class="atom-11" d="M 53.2 559.1 Q 53.2 556.6, 54.5 555.2 Q 55.7 553.7, 58.1 553.7 Q 60.4 553.7, 61.7 555.2 Q 62.9 556.6, 62.9 559.1 Q 62.9 561.7, 61.6 563.2 Q 60.4 564.6, 58.1 564.6 Q 55.7 564.6, 54.5 563.2 Q 53.2 561.7, 53.2 559.1 M 58.1 563.4 Q 59.7 563.4, 60.5 562.3 Q 61.4 561.2, 61.4 559.1 Q 61.4 557.0, 60.5 556.0 Q 59.7 554.9, 58.1 554.9 Q 56.4 554.9, 55.6 556.0 Q 54.7 557.0, 54.7 559.1 Q 54.7 561.3, 55.6 562.3 Q 56.4 563.4, 58.1 563.4 " fill="#FF0000"/>
<path class="atom-11" d="M 63.7 555.5 L 67.3 555.5 L 67.3 556.3 L 63.7 556.3 L 63.7 555.5 " fill="#FF0000"/>
<path class="legend" d="M 117.6 735.3 Q 118.9 735.3, 119.6 736.0 Q 120.3 736.8, 120.3 738.2 L 120.3 743.6 L 118.8 743.6 L 118.8 738.3 Q 118.8 737.3, 118.4 736.9 Q 118.0 736.4, 117.2 736.4 Q 116.4 736.4, 115.8 736.8 Q 115.2 737.1, 114.8 737.7 L 114.8 743.6 L 113.3 743.6 L 113.3 735.4 L 114.5 735.4 L 114.7 736.6 Q 115.8 735.3, 117.6 735.3 " fill="#000000"/>
<path class="legend" d="M 125.4 735.3 Q 127.1 735.3, 128.0 736.3 Q 129.0 737.4, 129.0 739.4 Q 129.0 741.4, 127.8 742.6 Q 126.7 743.8, 124.8 743.8 Q 123.5 743.8, 122.2 743.3 L 121.5 743.1 L 121.5 731.5 L 123.0 731.5 L 123.0 736.3 Q 123.9 735.3, 125.4 735.3 M 124.7 742.6 Q 126.0 742.6, 126.7 741.7 Q 127.4 740.9, 127.4 739.4 Q 127.4 738.0, 126.9 737.2 Q 126.3 736.4, 125.3 736.4 Q 124.4 736.4, 123.8 736.9 Q 123.2 737.3, 123.0 738.1 L 123.0 742.3 Q 123.8 742.6, 124.7 742.6 " fill="#000000"/>
<path class="legend" d="M 134.0 735.3 Q 135.3 735.3, 136.0 736.0 Q 136.7 736.8, 136.7 738.2 L 136.7 743.6 L 135.2 743.6 L 135.2 738.3 Q 135.2 737.3, 134.8 736.9 Q 134.4 736.4, 133.6 736.4 Q 132.9 736.4, 132.2 736.8 Q 131.6 737.1, 131.2 737.7 L 131.2 743.6 L 129.7 743.6 L 129.7 735.4 L 130.9 735.4 L 131.1 736.6 Q 132.2 735.3, 134.0 735.3 " fill="#000000"/>
<path class="bond-0 atom-0 atom-1" d="M 469.3,644.8 L 450.6,612.4" style="fill:none;fill-rule:evenodd;stroke:#000000;stroke-width:2.0px;stroke-linecap:butt;stroke-linejoin:miter;stroke-opacity:1"/>
<path class="bond-1 atom-1 atom-2" d="M 447.3,610.5 L 466.0,578.2" style="fill:none;fill-rule:evenodd;stroke:#000000;stroke-width:2.0px;stroke-linecap:butt;stroke-linejoin:miter;stroke-opacity:1"/>
<path class="bond-1 atom-1 atom-2" d="M 453.8,614.3 L 472.5,581.9" style="fill:none;fill-rule:evenodd;stroke:#000000;stroke-width:2.0px;stroke-linecap:butt;stroke-linejoin:miter;stroke-opacity:1"/>
<path class="bond-2 atom-3 atom-1" d="M 413.2,612.4 L 450.6,608.7 L 450.6,616.2 Z" style="fill:#000000;fill-rule:evenodd;fill-opacity:1;stroke:#000000;stroke-width:1.0px;stroke-linecap:butt;stroke-linejoin:miter;stroke-opacity:1;"/>
<path class="bond-3 atom-3 atom-4" d="M 413.2,612.4 L 394.5,644.8" style="fill:none;fill-rule:evenodd;stroke:#000000;stroke-width:2.0px;stroke-linecap:butt;stroke-linejoin:miter;stroke-opacity:1"/>
<path class="bond-4 atom-4 atom-5" d="M 394.5,644.8 L 357.1,644.8" style="fill:none;fill-rule:evenodd;stroke:#000000;stroke-width:2.0px;stroke-linecap:butt;stroke-linejoin:miter;stroke-opacity:1"/>
<path class="bond-5 atom-5 atom-6" d="M 357.1,644.8 L 338.4,612.4" style="fill:none;fill-rule:evenodd;stroke:#000000;stroke-width:2.0px;stroke-linecap:butt;stroke-linejoin:miter;stroke-opacity:1"/>
<path class="bond-6 atom-6 atom-7" d="M 338.4,612.4 L 357.1,580.0" style="fill:none;fill-rule:evenodd;stroke:#000000;stroke-width:2.0px;stroke-linecap:butt;stroke-linejoin:miter;stroke-opacity:1"/>
<path class="bond-6 atom-6 atom-7" d="M 347.7,611.3 L 360.8,588.6" style="fill:none;fill-rule:evenodd;stroke:#000000;stroke-width:2.0px;stroke-linecap:butt;stroke-linejoin:miter;stroke-opacity:1"/>
<path class="bond-7 atom-7 atom-8" d="M 357.1,580.0 L 394.5,580.0" style="fill:none;fill-rule:evenodd;stroke:#000000;stroke-width:2.0px;stroke-linecap:butt;stroke-linejoin:miter;stroke-opacity:1"/>
<path class="bond-8 atom-6 atom-9" d="M 338.4,612.4 L 301.0,612.4" style="fill:none;fill-rule:evenodd;stroke:#000000;stroke-width:2.0px;stroke-linecap:butt;stroke-linejoin:miter;stroke-opacity:1"/>
<path class="bond-9 atom-9 atom-10" d="M 304.3,614.3 L 296.8,627.2" style="fill:none;fill-rule:evenodd;stroke:#000000;stroke-width:2.0px;stroke-linecap:butt;stroke-linejoin:miter;stroke-opacity:1"/>
<path class="bond-9 atom-9 atom-10" d="M 296.8,627.2 L 289.4,640.1" style="fill:none;fill-rule:evenodd;stroke:#FF0000;stroke-width:2.0px;stroke-linecap:butt;stroke-linejoin:miter;stroke-opacity:1"/>
<path class="bond-9 atom-9 atom-10" d="M 297.8,610.5 L 290.4,623.4" style="fill:none;fill-rule:evenodd;stroke:#000000;stroke-width:2.0px;stroke-linecap:butt;stroke-linejoin:miter;stroke-opacity:1"/>
<path class="bond-9 atom-9 atom-10" d="M 290.4,623.4 L 282.9,636.3" style="fill:none;fill-rule:evenodd;stroke:#FF0000;stroke-width:2.0px;stroke-linecap:butt;stroke-linejoin:miter;stroke-opacity:1"/>
<path class="bond-10 atom-9 atom-11" d="M 301.0,612.4 L 293.6,599.6" style="fill:none;fill-rule:evenodd;stroke:#000000;stroke-width:2.0px;stroke-linecap:butt;stroke-linejoin:miter;stroke-opacity:1"/>
<path class="bond-10 atom-9 atom-11" d="M 293.6,599.6 L 286.2,586.8" style="fill:none;fill-rule:evenodd;stroke:#FF0000;stroke-width:2.0px;stroke-linecap:butt;stroke-linejoin:miter;stroke-opacity:1"/>
<path class="bond-11 atom-8 atom-3" d="M 394.5,580.0 L 413.2,612.4" style="fill:none;fill-rule:evenodd;stroke:#000000;stroke-width:2.0px;stroke-linecap:butt;stroke-linejoin:miter;stroke-opacity:1"/>
<path class="atom-10" d="M 277.5 644.8 Q 277.5 642.3, 278.7 640.9 Q 280.0 639.4, 282.3 639.4 Q 284.7 639.4, 285.9 640.9 Q 287.2 642.3, 287.2 644.8 Q 287.2 647.4, 285.9 648.9 Q 284.7 650.3, 282.3 650.3 Q 280.0 650.3, 278.7 648.9 Q 277.5 647.4, 277.5 644.8 M 282.3 649.1 Q 284.0 649.1, 284.8 648.0 Q 285.7 646.9, 285.7 644.8 Q 285.7 642.7, 284.8 641.7 Q 284.0 640.6, 282.3 640.6 Q 280.7 640.6, 279.8 641.7 Q 279.0 642.7, 279.0 644.8 Q 279.0 647.0, 279.8 648.0 Q 280.7 649.1, 282.3 649.1 " fill="#FF0000"/>
<path class="atom-11" d="M 277.5 580.1 Q 277.5 577.5, 278.7 576.1 Q 280.0 574.7, 282.3 574.7 Q 284.7 574.7, 285.9 576.1 Q 287.2 577.5, 287.2 580.1 Q 287.2 582.6, 285.9 584.1 Q 284.7 585.6, 282.3 585.6 Q 280.0 585.6, 278.7 584.1 Q 277.5 582.7, 277.5 580.1 M 282.3 584.4 Q 284.0 584.4, 284.8 583.3 Q 285.7 582.2, 285.7 580.1 Q 285.7 578.0, 284.8 576.9 Q 284.0 575.9, 282.3 575.9 Q 280.7 575.9, 279.8 576.9 Q 279.0 578.0, 279.0 580.1 Q 279.0 582.2, 279.8 583.3 Q 280.7 584.4, 282.3 584.4 " fill="#FF0000"/>
<path class="atom-11" d="M 288.0 576.4 L 291.6 576.4 L 291.6 577.2 L 288.0 577.2 L 288.0 576.4 " fill="#FF0000"/>
<path class="legend" d="M 371.5 731.5 Q 373.2 731.5, 374.2 732.5 Q 375.1 733.6, 375.1 735.6 Q 375.1 737.6, 374.0 738.8 Q 372.9 740.0, 370.9 740.0 Q 370.0 740.0, 369.2 739.7 L 369.2 743.8 L 367.7 743.8 L 367.7 731.6 L 368.9 731.6 L 369.1 732.6 Q 369.5 732.0, 370.2 731.8 Q 370.8 731.5, 371.5 731.5 M 370.9 738.8 Q 372.2 738.8, 372.9 737.9 Q 373.6 737.1, 373.6 735.6 Q 373.6 734.2, 373.0 733.4 Q 372.5 732.6, 371.4 732.6 Q 370.6 732.6, 370.0 733.1 Q 369.4 733.5, 369.2 734.3 L 369.2 738.5 Q 370.0 738.8, 370.9 738.8 " fill="#000000"/>
<path class="legend" d="M 377.1 731.6 L 377.3 732.7 Q 378.1 731.5, 379.5 731.5 Q 380.0 731.5, 380.6 731.6 L 380.3 733.0 Q 379.7 732.8, 379.3 732.8 Q 378.6 732.8, 378.2 733.1 Q 377.7 733.3, 377.4 734.0 L 377.4 739.8 L 375.9 739.8 L 375.9 731.6 L 377.1 731.6 " fill="#000000"/>
<path class="legend" d="M 380.8 727.7 L 382.3 727.7 L 382.3 739.8 L 380.8 739.8 L 380.8 727.7 " fill="#000000"/>
<path class="bond-0 atom-0 atom-1" d="M 523.6,624.6 L 557.5,608.8" style="fill:none;fill-rule:evenodd;stroke:#000000;stroke-width:2.0px;stroke-linecap:butt;stroke-linejoin:miter;stroke-opacity:1"/>
<path class="bond-1 atom-1 atom-2" d="M 557.5,608.8 L 588.1,630.3" style="fill:none;fill-rule:evenodd;stroke:#000000;stroke-width:2.0px;stroke-linecap:butt;stroke-linejoin:miter;stroke-opacity:1"/>
<path class="bond-2 atom-2 atom-3" d="M 588.1,630.3 L 622.0,614.6" style="fill:none;fill-rule:evenodd;stroke:#000000;stroke-width:2.0px;stroke-linecap:butt;stroke-linejoin:miter;stroke-opacity:1"/>
<path class="bond-3 atom-3 atom-4" d="M 622.0,614.6 L 652.6,636.0" style="fill:none;fill-rule:evenodd;stroke:#000000;stroke-width:2.0px;stroke-linecap:butt;stroke-linejoin:miter;stroke-opacity:1"/>
<path class="bond-3 atom-3 atom-4" d="M 622.3,623.9 L 643.7,638.9" style="fill:none;fill-rule:evenodd;stroke:#000000;stroke-width:2.0px;stroke-linecap:butt;stroke-linejoin:miter;stroke-opacity:1"/>
<path class="bond-4 atom-4 atom-5" d="M 652.6,636.0 L 686.5,620.3" style="fill:none;fill-rule:evenodd;stroke:#000000;stroke-width:2.0px;stroke-linecap:butt;stroke-linejoin:miter;stroke-opacity:1"/>
<path class="bond-5 atom-5 atom-6" d="M 682.8,620.0 L 684.2,604.7" style="fill:none;fill-rule:evenodd;stroke:#000000;stroke-width:2.0px;stroke-linecap:butt;stroke-linejoin:miter;stroke-opacity:1"/>
<path class="bond-5 atom-5 atom-6" d="M 684.2,604.7 L 685.5,589.5" style="fill:none;fill-rule:evenodd;stroke:#FF0000;stroke-width:2.0px;stroke-linecap:butt;stroke-linejoin:miter;stroke-opacity:1"/>
<path class="bond-5 atom-5 atom-6" d="M 690.3,620.6 L 691.6,605.4" style="fill:none;fill-rule:evenodd;stroke:#000000;stroke-width:2.0px;stroke-linecap:butt;stroke-linejoin:miter;stroke-opacity:1"/>
<path class="bond-5 atom-5 atom-6" d="M 691.6,605.4 L 693.0,590.1" style="fill:none;fill-rule:evenodd;stroke:#FF0000;stroke-width:2.0px;stroke-linecap:butt;stroke-linejoin:miter;stroke-opacity:1"/>
<path class="bond-6 atom-5 atom-7" d="M 686.5,620.3 L 698.8,628.9" style="fill:none;fill-rule:evenodd;stroke:#000000;stroke-width:2.0px;stroke-linecap:butt;stroke-linejoin:miter;stroke-opacity:1"/>
<path class="bond-6 atom-5 atom-7" d="M 698.8,628.9 L 711.0,637.5" style="fill:none;fill-rule:evenodd;stroke:#FF0000;stroke-width:2.0px;stroke-linecap:butt;stroke-linejoin:miter;stroke-opacity:1"/>
<path class="atom-6" d="M 685.0 583.1 Q 685.0 580.5, 686.2 579.1 Q 687.5 577.7, 689.9 577.7 Q 692.2 577.7, 693.5 579.1 Q 694.7 580.5, 694.7 583.1 Q 694.7 585.7, 693.4 587.1 Q 692.2 588.6, 689.9 588.6 Q 687.5 588.6, 686.2 587.1 Q 685.0 585.7, 685.0 583.1 M 689.9 587.4 Q 691.5 587.4, 692.3 586.3 Q 693.2 585.2, 693.2 583.1 Q 693.2 581.0, 692.3 580.0 Q 691.5 578.9, 689.9 578.9 Q 688.2 578.9, 687.4 579.9 Q 686.5 581.0, 686.5 583.1 Q 686.5 585.2, 687.4 586.3 Q 688.2 587.4, 689.9 587.4 " fill="#FF0000"/>
<path class="atom-7" d="M 712.3 641.8 Q 712.3 639.3, 713.5 637.8 Q 714.8 636.4, 717.1 636.4 Q 719.5 636.4, 720.7 637.8 Q 722.0 639.3, 722.0 641.8 Q 722.0 644.4, 720.7 645.8 Q 719.5 647.3, 717.1 647.3 Q 714.8 647.3, 713.5 645.8 Q 712.3 644.4, 712.3 641.8 M 717.1 646.1 Q 718.8 646.1, 719.6 645.0 Q 720.5 643.9, 720.5 641.8 Q 720.5 639.7, 719.6 638.7 Q 718.8 637.6, 717.1 637.6 Q 715.5 637.6, 714.6 638.7 Q 713.8 639.7, 713.8 641.8 Q 713.8 643.9, 714.6 645.0 Q 715.5 646.1, 717.1 646.1 " fill="#FF0000"/>
<path class="atom-7" d="M 722.7 638.2 L 726.4 638.2 L 726.4 638.9 L 722.7 638.9 L 722.7 638.2 " fill="#FF0000"/>
<path class="legend" d="M 614.2 736.6 L 614.2 735.4 L 615.8 735.4 L 616.0 733.0 L 617.2 733.0 L 617.2 735.4 L 619.7 735.4 L 619.7 736.6 L 617.2 736.6 L 617.2 741.1 Q 617.2 742.5, 618.4 742.5 Q 618.8 742.5, 619.5 742.3 L 619.8 743.4 Q 618.9 743.8, 618.1 743.8 Q 617.0 743.8, 616.3 743.1 Q 615.7 742.5, 615.7 741.2 L 615.7 736.6 L 614.2 736.6 " fill="#000000"/>
<path class="legend" d="M 620.2 734.5 Q 620.6 733.4, 621.6 732.8 Q 622.6 732.2, 624.0 732.2 Q 625.7 732.2, 626.7 733.1 Q 627.6 734.1, 627.6 735.7 Q 627.6 737.4, 626.4 739.0 Q 625.2 740.5, 622.6 742.4 L 627.8 742.4 L 627.8 743.7 L 620.2 743.7 L 620.2 742.6 Q 622.3 741.1, 623.6 740.0 Q 624.8 738.8, 625.4 737.8 Q 626.0 736.8, 626.0 735.8 Q 626.0 734.7, 625.5 734.1 Q 625.0 733.5, 624.0 733.5 Q 623.1 733.5, 622.5 733.8 Q 621.9 734.2, 621.4 735.0 L 620.2 734.5 " fill="#000000"/>
<path class="legend" d="M 633.1 735.3 Q 634.4 735.3, 635.1 736.0 Q 635.8 736.8, 635.8 738.2 L 635.8 743.7 L 634.3 743.7 L 634.3 738.3 Q 634.3 737.4, 633.9 736.9 Q 633.5 736.5, 632.7 736.5 Q 631.9 736.5, 631.3 736.8 Q 630.7 737.2, 630.3 737.8 L 630.3 743.7 L 628.8 743.7 L 628.8 731.5 L 630.3 731.5 L 630.3 736.5 Q 631.4 735.3, 633.1 735.3 " fill="#000000"/>
<path class="bond-0 atom-0 atom-1" d="M 798.8,576.1 L 802.4,591.0" style="fill:none;fill-rule:evenodd;stroke:#000000;stroke-width:2.0px;stroke-linecap:butt;stroke-linejoin:miter;stroke-opacity:1"/>
<path class="bond-0 atom-0 atom-1" d="M 802.4,591.0 L 806.0,605.9" style="fill:none;fill-rule:evenodd;stroke:#0000FF;stroke-width:2.0px;stroke-linecap:butt;stroke-linejoin:miter;stroke-opacity:1"/>
<path class="bond-1 atom-1 atom-2" d="M 809.2,619.0 L 812.8,633.9" style="fill:none;fill-rule:evenodd;stroke:#0000FF;stroke-width:2.0px;stroke-linecap:butt;stroke-linejoin:miter;stroke-opacity:1"/>
<path class="bond-1 atom-1 atom-2" d="M 812.8,633.9 L 816.4,648.8" style="fill:none;fill-rule:evenodd;stroke:#000000;stroke-width:2.0px;stroke-linecap:butt;stroke-linejoin:miter;stroke-opacity:1"/>
<path class="bond-2 atom-1 atom-3" d="M 802.4,613.7 L 786.8,617.5" style="fill:none;fill-rule:evenodd;stroke:#0000FF;stroke-width:2.0px;stroke-linecap:butt;stroke-linejoin:miter;stroke-opacity:1"/>
<path class="bond-2 atom-1 atom-3" d="M 786.8,617.5 L 771.3,621.3" style="fill:none;fill-rule:evenodd;stroke:#000000;stroke-width:2.0px;stroke-linecap:butt;stroke-linejoin:miter;stroke-opacity:1"/>
<path class="bond-3 atom-1 atom-4" d="M 818.7,609.8 L 831.3,606.7" style="fill:none;fill-rule:evenodd;stroke:#0000FF;stroke-width:2.0px;stroke-linecap:butt;stroke-linejoin:miter;stroke-opacity:1"/>
<path class="bond-3 atom-1 atom-4" d="M 831.3,606.7 L 843.9,603.6" style="fill:none;fill-rule:evenodd;stroke:#000000;stroke-width:2.0px;stroke-linecap:butt;stroke-linejoin:miter;stroke-opacity:1"/>
<path class="bond-4 atom-4 atom-5" d="M 843.9,603.6 L 869.7,630.7" style="fill:none;fill-rule:evenodd;stroke:#000000;stroke-width:2.0px;stroke-linecap:butt;stroke-linejoin:miter;stroke-opacity:1"/>
<path class="bond-5 atom-5 atom-6" d="M 869.7,630.7 L 906.1,621.8" style="fill:none;fill-rule:evenodd;stroke:#000000;stroke-width:2.0px;stroke-linecap:butt;stroke-linejoin:miter;stroke-opacity:1"/>
<path class="bond-6 atom-6 atom-7" d="M 906.1,621.8 L 916.6,585.9" style="fill:none;fill-rule:evenodd;stroke:#000000;stroke-width:2.0px;stroke-linecap:butt;stroke-linejoin:miter;stroke-opacity:1"/>
<path class="bond-6 atom-6 atom-7" d="M 914.8,618.5 L 922.2,593.4" style="fill:none;fill-rule:evenodd;stroke:#000000;stroke-width:2.0px;stroke-linecap:butt;stroke-linejoin:miter;stroke-opacity:1"/>
<path class="bond-7 atom-7 atom-8" d="M 916.6,585.9 L 952.9,577.1" style="fill:none;fill-rule:evenodd;stroke:#000000;stroke-width:2.0px;stroke-linecap:butt;stroke-linejoin:miter;stroke-opacity:1"/>
<path class="bond-8 atom-8 atom-9" d="M 952.9,577.1 L 978.7,604.1" style="fill:none;fill-rule:evenodd;stroke:#000000;stroke-width:2.0px;stroke-linecap:butt;stroke-linejoin:miter;stroke-opacity:1"/>
<path class="bond-8 atom-8 atom-9" d="M 951.4,586.3 L 969.4,605.2" style="fill:none;fill-rule:evenodd;stroke:#000000;stroke-width:2.0px;stroke-linecap:butt;stroke-linejoin:miter;stroke-opacity:1"/>
<path class="bond-9 atom-9 atom-10" d="M 978.7,604.1 L 968.2,640.0" style="fill:none;fill-rule:evenodd;stroke:#000000;stroke-width:2.0px;stroke-linecap:butt;stroke-linejoin:miter;stroke-opacity:1"/>
<path class="bond-10 atom-10 atom-11" d="M 968.2,640.0 L 931.9,648.9" style="fill:none;fill-rule:evenodd;stroke:#000000;stroke-width:2.0px;stroke-linecap:butt;stroke-linejoin:miter;stroke-opacity:1"/>
<path class="bond-10 atom-10 atom-11" d="M 961.0,634.1 L 935.6,640.3" style="fill:none;fill-rule:evenodd;stroke:#000000;stroke-width:2.0px;stroke-linecap:butt;stroke-linejoin:miter;stroke-opacity:1"/>
<path class="bond-11 atom-11 atom-6" d="M 931.9,648.9 L 906.1,621.8" style="fill:none;fill-rule:evenodd;stroke:#000000;stroke-width:2.0px;stroke-linecap:butt;stroke-linejoin:miter;stroke-opacity:1"/>
<path class="atom-1" d="M 805.3 607.2 L 808.7 612.8 Q 809.1 613.3, 809.6 614.3 Q 810.2 615.3, 810.2 615.4 L 810.2 607.2 L 811.6 607.2 L 811.6 617.8 L 810.2 617.8 L 806.4 611.6 Q 806.0 610.9, 805.5 610.1 Q 805.1 609.3, 805.0 609.0 L 805.0 617.8 L 803.6 617.8 L 803.6 607.2 L 805.3 607.2 " fill="#0000FF"/>
<path class="atom-1" d="M 812.9 609.1 L 814.7 609.1 L 814.7 607.1 L 815.6 607.1 L 815.6 609.1 L 817.5 609.1 L 817.5 609.8 L 815.6 609.8 L 815.6 611.8 L 814.7 611.8 L 814.7 609.8 L 812.9 609.8 L 812.9 609.1 " fill="#0000FF"/>
<path class="legend" d="M 866.4 736.6 L 866.4 735.4 L 867.9 735.4 L 868.2 733.0 L 869.3 733.0 L 869.3 735.4 L 871.8 735.4 L 871.8 736.6 L 869.3 736.6 L 869.3 741.1 Q 869.3 742.5, 870.5 742.5 Q 871.0 742.5, 871.7 742.3 L 872.0 743.4 Q 871.1 743.8, 870.2 743.8 Q 869.2 743.8, 868.5 743.1 Q 867.8 742.5, 867.8 741.2 L 867.8 736.6 L 866.4 736.6 " fill="#000000"/>
<path class="legend" d="M 873.6 735.4 L 873.7 736.6 Q 874.6 735.3, 876.0 735.3 Q 876.5 735.3, 877.1 735.4 L 876.8 736.8 Q 876.1 736.6, 875.8 736.6 Q 875.1 736.6, 874.6 736.9 Q 874.2 737.2, 873.9 737.8 L 873.9 743.7 L 872.4 743.7 L 872.4 735.4 L 873.6 735.4 " fill="#000000"/>
<path class="legend" d="M 879.1 742.5 L 883.6 742.5 L 883.6 743.7 L 877.3 743.7 L 877.3 742.7 L 881.6 736.6 L 877.5 736.6 L 877.5 735.4 L 883.5 735.4 L 883.5 736.3 L 879.1 742.5 " fill="#000000"/>
</svg>