<svg xmlns="http://www.w3.org/2000/svg" xmlns:rdkit="http://www.rdkit.org/xml" xmlns:xlink="http://www.w3.org/1999/xlink" version="1.1" baseProfile="full" xml:space="preserve" width="1250px" height="250px" viewBox="0 0 1250 250">
<!-- END OF HEADER -->
<rect style="opacity:1.0;fill:#FFFFFF;stroke:none" width="1250.0" height="250.0" x="0.0" y="0.0"> </rect>
<path class="bond-0 atom-1 atom-0" d="M 76.1,88.3 L 58.8,75.8 L 61.6,72.6 Z" style="fill:#000000;fill-rule:evenodd;fill-opacity:1;stroke:#000000;stroke-width:1.0px;stroke-linecap:butt;stroke-linejoin:miter;stroke-opacity:1;"/>
<path class="bond-1 atom-1 atom-2" d="M 76.1,88.3 L 71.9,109.2" style="fill:none;fill-rule:evenodd;stroke:#000000;stroke-width:2.0px;stroke-linecap:butt;stroke-linejoin:miter;stroke-opacity:1"/>
<path class="bond-2 atom-2 atom-3" d="M 71.9,109.2 L 51.7,115.9" style="fill:none;fill-rule:evenodd;stroke:#000000;stroke-width:2.0px;stroke-linecap:butt;stroke-linejoin:miter;stroke-opacity:1"/>
<path class="bond-3 atom-3 atom-4" d="M 51.7,115.9 L 47.5,136.8" style="fill:none;fill-rule:evenodd;stroke:#000000;stroke-width:2.0px;stroke-linecap:butt;stroke-linejoin:miter;stroke-opacity:1"/>
<path class="bond-4 atom-4 atom-5" d="M 47.5,136.8 L 27.3,143.5" style="fill:none;fill-rule:evenodd;stroke:#000000;stroke-width:2.0px;stroke-linecap:butt;stroke-linejoin:miter;stroke-opacity:1"/>
<path class="bond-5 atom-5 atom-6" d="M 27.3,143.5 L 23.1,164.4" style="fill:none;fill-rule:evenodd;stroke:#000000;stroke-width:2.0px;stroke-linecap:butt;stroke-linejoin:miter;stroke-opacity:1"/>
<path class="bond-6 atom-5 atom-7" d="M 27.3,143.5 L 11.4,129.4" style="fill:none;fill-rule:evenodd;stroke:#000000;stroke-width:2.0px;stroke-linecap:butt;stroke-linejoin:miter;stroke-opacity:1"/>
<path class="bond-7 atom-1 atom-8" d="M 76.1,88.3 L 96.3,81.5" style="fill:none;fill-rule:evenodd;stroke:#000000;stroke-width:2.0px;stroke-linecap:butt;stroke-linejoin:miter;stroke-opacity:1"/>
<path class="bond-8 atom-8 atom-9" d="M 96.3,81.5 L 100.7,60.6 L 104.7,61.9 Z" style="fill:#000000;fill-rule:evenodd;fill-opacity:1;stroke:#000000;stroke-width:1.0px;stroke-linecap:butt;stroke-linejoin:miter;stroke-opacity:1;"/>
<path class="bond-9 atom-9 atom-10" d="M 102.7,61.3 L 124.0,61.1" style="fill:none;fill-rule:evenodd;stroke:#000000;stroke-width:2.0px;stroke-linecap:butt;stroke-linejoin:miter;stroke-opacity:1"/>
<path class="bond-10 atom-10 atom-11" d="M 124.0,61.1 L 130.7,81.2" style="fill:none;fill-rule:evenodd;stroke:#000000;stroke-width:2.0px;stroke-linecap:butt;stroke-linejoin:miter;stroke-opacity:1"/>
<path class="bond-11 atom-11 atom-12" d="M 130.7,81.2 L 113.6,93.9" style="fill:none;fill-rule:evenodd;stroke:#000000;stroke-width:2.0px;stroke-linecap:butt;stroke-linejoin:miter;stroke-opacity:1"/>
<path class="bond-12 atom-12 atom-13" d="M 113.6,93.9 L 116.0,115.0" style="fill:none;fill-rule:evenodd;stroke:#000000;stroke-width:2.0px;stroke-linecap:butt;stroke-linejoin:miter;stroke-opacity:1"/>
<path class="bond-13 atom-13 atom-14" d="M 116.0,115.0 L 135.6,123.5" style="fill:none;fill-rule:evenodd;stroke:#000000;stroke-width:2.0px;stroke-linecap:butt;stroke-linejoin:miter;stroke-opacity:1"/>
<path class="bond-14 atom-14 atom-15" d="M 135.6,123.5 L 152.7,110.8" style="fill:none;fill-rule:evenodd;stroke:#000000;stroke-width:2.0px;stroke-linecap:butt;stroke-linejoin:miter;stroke-opacity:1"/>
<path class="bond-15 atom-15 atom-16" d="M 152.7,110.8 L 150.2,89.7" style="fill:none;fill-rule:evenodd;stroke:#000000;stroke-width:2.0px;stroke-linecap:butt;stroke-linejoin:miter;stroke-opacity:1"/>
<path class="bond-16 atom-16 atom-17" d="M 150.2,89.7 L 167.3,77.0" style="fill:none;fill-rule:evenodd;stroke:#000000;stroke-width:2.0px;stroke-linecap:butt;stroke-linejoin:miter;stroke-opacity:1"/>
<path class="bond-17 atom-17 atom-18" d="M 167.3,77.0 L 186.9,85.5" style="fill:none;fill-rule:evenodd;stroke:#000000;stroke-width:2.0px;stroke-linecap:butt;stroke-linejoin:miter;stroke-opacity:1"/>
<path class="bond-18 atom-18 atom-19" d="M 186.9,85.5 L 189.3,106.7" style="fill:none;fill-rule:evenodd;stroke:#000000;stroke-width:2.0px;stroke-linecap:butt;stroke-linejoin:miter;stroke-opacity:1"/>
<path class="bond-18 atom-18 atom-19" d="M 183.0,89.2 L 184.7,104.0" style="fill:none;fill-rule:evenodd;stroke:#000000;stroke-width:2.0px;stroke-linecap:butt;stroke-linejoin:miter;stroke-opacity:1"/>
<path class="bond-19 atom-19 atom-20" d="M 189.3,106.7 L 172.2,119.3" style="fill:none;fill-rule:evenodd;stroke:#000000;stroke-width:2.0px;stroke-linecap:butt;stroke-linejoin:miter;stroke-opacity:1"/>
<path class="bond-20 atom-20 atom-21" d="M 172.2,119.3 L 174.6,140.5" style="fill:none;fill-rule:evenodd;stroke:#000000;stroke-width:2.0px;stroke-linecap:butt;stroke-linejoin:miter;stroke-opacity:1"/>
<path class="bond-21 atom-21 atom-22" d="M 174.6,140.5 L 194.1,148.9" style="fill:none;fill-rule:evenodd;stroke:#000000;stroke-width:2.0px;stroke-linecap:butt;stroke-linejoin:miter;stroke-opacity:1"/>
<path class="bond-22 atom-22 atom-23" d="M 194.1,148.9 L 211.2,136.3" style="fill:none;fill-rule:evenodd;stroke:#000000;stroke-width:2.0px;stroke-linecap:butt;stroke-linejoin:miter;stroke-opacity:1"/>
<path class="bond-23 atom-23 atom-24" d="M 211.2,136.3 L 208.8,115.1" style="fill:none;fill-rule:evenodd;stroke:#000000;stroke-width:2.0px;stroke-linecap:butt;stroke-linejoin:miter;stroke-opacity:1"/>
<path class="bond-24 atom-23 atom-25" d="M 216.0,139.1 L 216.6,137.8" style="fill:none;fill-rule:evenodd;stroke:#000000;stroke-width:1.0px;stroke-linecap:butt;stroke-linejoin:miter;stroke-opacity:1"/>
<path class="bond-24 atom-23 atom-25" d="M 220.9,142.0 L 222.0,139.4" style="fill:none;fill-rule:evenodd;stroke:#FF0000;stroke-width:1.0px;stroke-linecap:butt;stroke-linejoin:miter;stroke-opacity:1"/>
<path class="bond-24 atom-23 atom-25" d="M 225.7,144.9 L 227.4,141.0" style="fill:none;fill-rule:evenodd;stroke:#FF0000;stroke-width:1.0px;stroke-linecap:butt;stroke-linejoin:miter;stroke-opacity:1"/>
<path class="bond-25 atom-20 atom-26" d="M 172.2,119.3 L 192.5,125.8 L 190.8,129.7 Z" style="fill:#000000;fill-rule:evenodd;fill-opacity:1;stroke:#000000;stroke-width:1.0px;stroke-linecap:butt;stroke-linejoin:miter;stroke-opacity:1;"/>
<path class="bond-26 atom-12 atom-27" d="M 108.8,96.1 L 109.3,97.1" style="fill:none;fill-rule:evenodd;stroke:#000000;stroke-width:1.0px;stroke-linecap:butt;stroke-linejoin:miter;stroke-opacity:1"/>
<path class="bond-26 atom-12 atom-27" d="M 103.9,98.4 L 105.0,100.2" style="fill:none;fill-rule:evenodd;stroke:#000000;stroke-width:1.0px;stroke-linecap:butt;stroke-linejoin:miter;stroke-opacity:1"/>
<path class="bond-26 atom-12 atom-27" d="M 99.1,100.6 L 100.7,103.4" style="fill:none;fill-rule:evenodd;stroke:#000000;stroke-width:1.0px;stroke-linecap:butt;stroke-linejoin:miter;stroke-opacity:1"/>
<path class="bond-26 atom-12 atom-27" d="M 94.2,102.9 L 96.4,106.5" style="fill:none;fill-rule:evenodd;stroke:#000000;stroke-width:1.0px;stroke-linecap:butt;stroke-linejoin:miter;stroke-opacity:1"/>
<path class="bond-27 atom-12 atom-8" d="M 113.6,93.9 L 96.3,81.5" style="fill:none;fill-rule:evenodd;stroke:#000000;stroke-width:2.0px;stroke-linecap:butt;stroke-linejoin:miter;stroke-opacity:1"/>
<path class="bond-28 atom-16 atom-11" d="M 150.2,89.7 L 130.7,81.2" style="fill:none;fill-rule:evenodd;stroke:#000000;stroke-width:2.0px;stroke-linecap:butt;stroke-linejoin:miter;stroke-opacity:1"/>
<path class="bond-29 atom-20 atom-15" d="M 172.2,119.3 L 152.7,110.8" style="fill:none;fill-rule:evenodd;stroke:#000000;stroke-width:2.0px;stroke-linecap:butt;stroke-linejoin:miter;stroke-opacity:1"/>
<path class="bond-30 atom-24 atom-19" d="M 208.8,115.1 L 189.3,106.7" style="fill:none;fill-rule:evenodd;stroke:#000000;stroke-width:2.0px;stroke-linecap:butt;stroke-linejoin:miter;stroke-opacity:1"/>
<path class="bond-31 atom-11 atom-28" d="M 135.2,78.1 L 134.2,77.1" style="fill:none;fill-rule:evenodd;stroke:#000000;stroke-width:1.0px;stroke-linecap:butt;stroke-linejoin:miter;stroke-opacity:1"/>
<path class="bond-31 atom-11 atom-28" d="M 139.6,75.0 L 137.7,72.9" style="fill:none;fill-rule:evenodd;stroke:#000000;stroke-width:1.0px;stroke-linecap:butt;stroke-linejoin:miter;stroke-opacity:1"/>
<path class="bond-31 atom-11 atom-28" d="M 144.1,71.9 L 141.2,68.7" style="fill:none;fill-rule:evenodd;stroke:#000000;stroke-width:1.0px;stroke-linecap:butt;stroke-linejoin:miter;stroke-opacity:1"/>
<path class="bond-32 atom-15 atom-29" d="M 152.6,116.5 L 154.0,116.3" style="fill:none;fill-rule:evenodd;stroke:#000000;stroke-width:1.0px;stroke-linecap:butt;stroke-linejoin:miter;stroke-opacity:1"/>
<path class="bond-32 atom-15 atom-29" d="M 152.5,122.2 L 155.3,121.8" style="fill:none;fill-rule:evenodd;stroke:#000000;stroke-width:1.0px;stroke-linecap:butt;stroke-linejoin:miter;stroke-opacity:1"/>
<path class="bond-32 atom-15 atom-29" d="M 152.5,127.8 L 156.7,127.3" style="fill:none;fill-rule:evenodd;stroke:#000000;stroke-width:1.0px;stroke-linecap:butt;stroke-linejoin:miter;stroke-opacity:1"/>
<path class="bond-33 atom-16 atom-30" d="M 155.2,92.6 L 155.8,91.3" style="fill:none;fill-rule:evenodd;stroke:#000000;stroke-width:1.0px;stroke-linecap:butt;stroke-linejoin:miter;stroke-opacity:1"/>
<path class="bond-33 atom-16 atom-30" d="M 160.2,95.6 L 161.3,93.0" style="fill:none;fill-rule:evenodd;stroke:#000000;stroke-width:1.0px;stroke-linecap:butt;stroke-linejoin:miter;stroke-opacity:1"/>
<path class="bond-33 atom-16 atom-30" d="M 165.1,98.5 L 166.8,94.6" style="fill:none;fill-rule:evenodd;stroke:#000000;stroke-width:1.0px;stroke-linecap:butt;stroke-linejoin:miter;stroke-opacity:1"/>
<path class="atom-25" d="M 228.0 144.8 Q 228.0 143.3, 228.7 142.5 Q 229.4 141.7, 230.7 141.7 Q 232.1 141.7, 232.8 142.5 Q 233.5 143.3, 233.5 144.8 Q 233.5 146.2, 232.8 147.1 Q 232.0 147.9, 230.7 147.9 Q 229.4 147.9, 228.7 147.1 Q 228.0 146.2, 228.0 144.8 M 230.7 147.2 Q 231.6 147.2, 232.1 146.6 Q 232.6 146.0, 232.6 144.8 Q 232.6 143.6, 232.1 143.0 Q 231.6 142.4, 230.7 142.4 Q 229.8 142.4, 229.3 143.0 Q 228.8 143.6, 228.8 144.8 Q 228.8 146.0, 229.3 146.6 Q 229.8 147.2, 230.7 147.2 " fill="#FF0000"/>
<path class="atom-25" d="M 233.9 141.8 L 234.7 141.8 L 234.7 144.3 L 237.8 144.3 L 237.8 141.8 L 238.6 141.8 L 238.6 147.8 L 237.8 147.8 L 237.8 145.0 L 234.7 145.0 L 234.7 147.8 L 233.9 147.8 L 233.9 141.8 " fill="#FF0000"/>
<path class="atom-28" d="M 144.0 63.8 L 144.9 63.8 L 144.9 66.4 L 147.9 66.4 L 147.9 63.8 L 148.8 63.8 L 148.8 69.9 L 147.9 69.9 L 147.9 67.1 L 144.9 67.1 L 144.9 69.9 L 144.0 69.9 L 144.0 63.8 " fill="#000000"/>
<path class="atom-29" d="M 152.7 129.0 L 153.5 129.0 L 153.5 131.5 L 156.6 131.5 L 156.6 129.0 L 157.4 129.0 L 157.4 135.0 L 156.6 135.0 L 156.6 132.2 L 153.5 132.2 L 153.5 135.0 L 152.7 135.0 L 152.7 129.0 " fill="#000000"/>
<path class="atom-30" d="M 167.4 95.2 L 168.2 95.2 L 168.2 97.7 L 171.3 97.7 L 171.3 95.2 L 172.1 95.2 L 172.1 101.2 L 171.3 101.2 L 171.3 98.4 L 168.2 98.4 L 168.2 101.2 L 167.4 101.2 L 167.4 95.2 " fill="#000000"/>
<path class="legend" d="M 116.0 239.4 L 113.2 235.4 L 114.9 235.4 L 116.9 238.2 L 118.9 235.4 L 120.5 235.4 L 117.7 239.4 L 120.7 243.6 L 119.0 243.6 L 116.8 240.5 L 114.6 243.6 L 113.0 243.6 L 116.0 239.4 " fill="#000000"/>
<path class="legend" d="M 125.0 243.8 Q 122.9 243.8, 121.9 242.2 Q 120.9 240.7, 120.9 237.9 Q 120.9 235.2, 121.9 233.7 Q 122.9 232.2, 125.0 232.2 Q 127.1 232.2, 128.1 233.7 Q 129.2 235.2, 129.2 237.9 Q 129.2 240.7, 128.1 242.2 Q 127.1 243.8, 125.0 243.8 M 125.0 242.5 Q 126.2 242.5, 126.9 241.3 Q 127.6 240.2, 127.6 237.9 Q 127.6 235.7, 126.9 234.6 Q 126.2 233.4, 125.0 233.4 Q 123.8 233.4, 123.1 234.6 Q 122.5 235.7, 122.5 237.9 Q 122.5 240.2, 123.1 241.3 Q 123.8 242.5, 125.0 242.5 " fill="#000000"/>
<path class="legend" d="M 130.8 242.3 L 133.3 242.3 L 133.3 233.9 L 130.6 234.7 L 130.2 233.8 L 133.7 232.2 L 134.8 232.4 L 134.8 242.3 L 137.0 242.3 L 137.0 243.6 L 130.8 243.6 L 130.8 242.3 " fill="#000000"/>
</svg>